M48
;GenerationSoftware,Autodesk,EAGLE,9.6.2*%
;CreationDate,2021-02-24T22:33:17Z*%
FMAT,2
ICI,OFF
METRIC,TZ,000.000
T14C0.350
T13C0.600
T12C0.640
T11C0.660
T10C0.854
T9C1.016
T8C1.118
T7C1.200
T6C1.500
T5C1.700
T4C1.800
T3C2.000
T2C2.100
%
G90
M71
T2
X3500Y3500
X41000Y6000
X3500Y48000
X41000Y29500
T3
X7410Y35800
X35010Y35800
T4
X11210Y23800
X33210Y23800
T5
X10990Y51410
X22450Y42870
X10990Y44410
T6
X22450Y52120
T7
X33060Y50250
X38140Y50250
T8
X5400Y13390
X15560Y13390
X33390Y20400
X33390Y10240
T9
X8890Y3410
X8890Y5950
X8890Y8490
T10
X19470Y18345
X19470Y15555
X29630Y15555
X29630Y18345
T11
X6930Y18190
X14170Y18190
X15430Y3325
X15430Y10565
X21810Y3325
X21810Y10565
X37690Y19565
X37690Y12325
X36690Y9975
X36690Y2735
T12
X30560Y5280
X28060Y5280
T13
X17700Y44670
X27200Y49370
X27200Y44670
X22450Y48870
X17700Y49370
T14
X18000Y53000
X23000Y32500
X19000Y37000
X23000Y37000
X33000Y53000
X26500Y53000
X38000Y53000
X19000Y32500
X15000Y35500
X8500Y48000
X15000Y32500
X11000Y35500
X11000Y32500
X38000Y45500
X38000Y41000
X38000Y36500
X38000Y32000
X34000Y32000
X34000Y41000
X41500Y36500
X41500Y41000
X41500Y45500
X41500Y53000
M30