  0
SECTION
  2
HEADER
  9
$ACADVER
  1
AC1014
  9
$HANDSEED
  5
FFFF
  9
$MEASUREMENT
 70
     1
  0
ENDSEC
  0
SECTION
  2
TABLES
  0
TABLE
  2
VPORT
  5
8
330
0
100
AcDbSymbolTable
 70
     4
  0
VPORT
  5
2E
330
8
100
AcDbSymbolTableRecord
100
AcDbViewportTableRecord
  2
*ACTIVE
 70
     0
 10
0.0
 20
0.0
 11
1.0
 21
1.0
 12
210.0
 22
148.5
 13
0.0
 23
0.0
 14
10.0
 24
10.0
 15
10.0
 25
10.0
 16
0.0
 26
0.0
 36
1.0
 17
0.0
 27
0.0
 37
0.0
 40
341.0
 41
1.24
 42
50.0
 43
0.0
 44
0.0
 50
0.0
 51
0.0
 71
     0
 72
   100
 73
     1
 74
     3
 75
     0
 76
     0
 77
     0
 78
     0
  0
ENDTAB
  0
TABLE
  2
LTYPE
  5
5
330
0
100
AcDbSymbolTable
 70
     1
  0
LTYPE
  5
14
330
5
100
AcDbSymbolTableRecord
100
AcDbLinetypeTableRecord
  2
BYBLOCK
 70
     0
  3

 72
    65
 73
     0
 40
0.0
  0
LTYPE
  5
15
330
5
100
AcDbSymbolTableRecord
100
AcDbLinetypeTableRecord
  2
BYLAYER
 70
     0
  3

 72
    65
 73
     0
 40
0.0
  0
LTYPE
  5
16
330
5
100
AcDbSymbolTableRecord
100
AcDbLinetypeTableRecord
  2
CONTINUOUS
 70
     0
  3
Solid line
 72
    65
 73
     0
 40
0.0
  0
ENDTAB
  0
TABLE
  2
LAYER
  5
2
100
AcDbSymbolTable
 70
2
  0
LAYER
  5
50
100
AcDbSymbolTableRecord
100
AcDbLayerTableRecord
  2
0
 70
0
  6
CONTINUOUS
  0
LAYER
  5
51
100
AcDbSymbolTableRecord
100
AcDbLayerTableRecord
  2
Trace
 70
0
  6
CONTINUOUS
  0
ENDTAB
  0
TABLE
  2
STYLE
  5
3
330
0
100
AcDbSymbolTable
 70
     1
  0
STYLE
  5
11
330
3
100
AcDbSymbolTableRecord
100
AcDbTextStyleTableRecord
  2
STANDARD
 70
     0
 40
0.0
 41
1.0
 50
0.0
 71
     0
 42
2.5
  3
txt
  4

  0
ENDTAB
  0
TABLE
  2
VIEW
  5
6
330
0
100
AcDbSymbolTable
 70
     0
  0
ENDTAB
  0
TABLE
  2
UCS
  5
7
330
0
100
AcDbSymbolTable
 70
     0
  0
ENDTAB
  0
TABLE
  2
APPID
  5
9
330
0
100
AcDbSymbolTable
 70
     2
  0
APPID
  5
12
330
9
100
AcDbSymbolTableRecord
100
AcDbRegAppTableRecord
  2
ACAD
 70
     0
  0
ENDTAB
  0
TABLE
  2
DIMSTYLE
  5
A
330
0
100
AcDbSymbolTable
 70
     1
  0
DIMSTYLE
105
27
330
A
100
AcDbSymbolTableRecord
100
AcDbDimStyleTableRecord
  2
ISO-25
 70
     0
  3

  4

  5

  6

  7

 40
1.0
 41
2.5
 42
0.625
 43
3.75
 44
1.25
 45
0.0
 46
0.0
 47
0.0
 48
0.0
140
2.5
141
2.5
142
0.0
143
0.03937007874016
144
1.0
145
0.0
146
1.0
147
0.625
 71
     0
 72
     0
 73
     0
 74
     0
 75
     0
 76
     0
 77
     1
 78
     8
170
     0
171
     3
172
     1
173
     0
174
     0
175
     0
176
     0
177
     0
178
     0
270
     2
271
     2
272
     2
273
     2
274
     3
340
11
275
     0
280
     0
281
     0
282
     0
283
     0
284
     8
285
     0
286
     0
287
     3
288
     0
  0
ENDTAB
  0
TABLE
  2
BLOCK_RECORD
  5
1
330
0
100
AcDbSymbolTable
 70
     1
  0
BLOCK_RECORD
  5
1F
330
1
100
AcDbSymbolTableRecord
100
AcDbBlockTableRecord
  2
*MODEL_SPACE
  0
BLOCK_RECORD
  5
1B
330
1
100
AcDbSymbolTableRecord
100
AcDbBlockTableRecord
  2
*PAPER_SPACE
  0
ENDTAB
  0
ENDSEC
  0
SECTION
  2
BLOCKS
  0
BLOCK
  5
20
330
1F
100
AcDbEntity
  8
0
100
AcDbBlockBegin
  2
*MODEL_SPACE
 70
     0
 10
0.0
 20
0.0
 30
0.0
  3
*MODEL_SPACE
  1

  0
ENDBLK
  5
21
330
1F
100
AcDbEntity
  8
0
100
AcDbBlockEnd
  0
BLOCK
  5
1C
330
1B
100
AcDbEntity
 67
     1
  8
0
100
AcDbBlockBegin
  2
*PAPER_SPACE
  1

  0
ENDBLK
  5
1D
330
1B
100
AcDbEntity
 67
     1
  8
0
100
AcDbBlockEnd
  0
ENDSEC
  0
SECTION
  2
ENTITIES
  0
SPLINE
  5
100
100
AcDbEntity
  8
Trace
 62
7
100
AcDbSpline
 70
8
 71
3
 72
8
 73
4
 74
0
 40
0
 40
0
 40
0
 40
0
 40
1
 40
1
 40
1
 40
1
 10
26.826162
 20
88.341206
 30
0.0
 10
26.826162
 20
88.540300
 30
0.0
 10
26.881550
 20
88.737427
 30
0.0
 10
26.949247
 20
88.779266
 30
0.0
  0
SPLINE
  5
101
100
AcDbEntity
  8
Trace
 62
7
100
AcDbSpline
 70
8
 71
3
 72
8
 73
4
 74
0
 40
0
 40
0
 40
0
 40
0
 40
1
 40
1
 40
1
 40
1
 10
26.949247
 20
88.779266
 30
0.0
 10
27.016943
 20
88.821105
 30
0.0
 10
27.072331
 20
89.236516
 30
0.0
 10
27.072331
 20
89.702401
 30
0.0
  0
SPLINE
  5
102
100
AcDbEntity
  8
Trace
 62
7
100
AcDbSpline
 70
8
 71
3
 72
8
 73
4
 74
0
 40
0
 40
0
 40
0
 40
0
 40
1
 40
1
 40
1
 40
1
 10
27.072331
 20
89.702401
 30
0.0
 10
27.072331
 20
90.168287
 30
0.0
 10
27.127719
 20
90.583697
 30
0.0
 10
27.195415
 20
90.625536
 30
0.0
  0
SPLINE
  5
103
100
AcDbEntity
  8
Trace
 62
7
100
AcDbSpline
 70
8
 71
3
 72
8
 73
4
 74
0
 40
0
 40
0
 40
0
 40
0
 40
1
 40
1
 40
1
 40
1
 10
27.195415
 20
90.625536
 30
0.0
 10
27.263111
 20
90.667375
 30
0.0
 10
27.318502
 20
91.034307
 30
0.0
 10
27.318502
 20
91.440942
 30
0.0
  0
SPLINE
  5
104
100
AcDbEntity
  8
Trace
 62
7
100
AcDbSpline
 70
8
 71
3
 72
8
 73
4
 74
0
 40
0
 40
0
 40
0
 40
0
 40
1
 40
1
 40
1
 40
1
 10
27.318502
 20
91.440942
 30
0.0
 10
27.318502
 20
91.847577
 30
0.0
 10
27.371278
 20
92.278896
 30
0.0
 10
27.435786
 20
92.399429
 30
0.0
  0
SPLINE
  5
105
100
AcDbEntity
  8
Trace
 62
7
100
AcDbSpline
 70
8
 71
3
 72
8
 73
4
 74
0
 40
0
 40
0
 40
0
 40
0
 40
1
 40
1
 40
1
 40
1
 10
27.435786
 20
92.399429
 30
0.0
 10
27.548943
 20
92.610864
 30
0.0
 10
27.729733
 20
93.692891
 30
0.0
 10
27.931171
 20
95.364295
 30
0.0
  0
SPLINE
  5
106
100
AcDbEntity
  8
Trace
 62
7
100
AcDbSpline
 70
8
 71
3
 72
8
 73
4
 74
0
 40
0
 40
0
 40
0
 40
0
 40
1
 40
1
 40
1
 40
1
 10
27.931171
 20
95.364295
 30
0.0
 10
27.984204
 20
95.804323
 30
0.0
 10
28.068365
 20
96.288968
 30
0.0
 10
28.118200
 20
96.441286
 30
0.0
  0
LWPOLYLINE
  5
107
100
AcDbEntity
  8
Trace
 62
7
100
AcDbPolyline
 90
4
 70
1
 10
27.694046
 20
97.236874
 30
0.0
 10
62.280834
 20
97.236874
 30
0.0
 10
60.926903
 20
87.513187
 30
0.0
 10
26.217031
 20
87.759356
 30
0.0
  0
SPLINE
  5
108
100
AcDbEntity
  8
Trace
 62
7
100
AcDbSpline
 70
8
 71
3
 72
8
 73
4
 74
0
 40
0
 40
0
 40
0
 40
0
 40
1
 40
1
 40
1
 40
1
 10
61.723217
 20
96.318201
 30
0.0
 10
61.675410
 20
96.098187
 30
0.0
 10
61.609422
 20
95.530459
 30
0.0
 10
61.576577
 20
95.056583
 30
0.0
  0
SPLINE
  5
109
100
AcDbEntity
  8
Trace
 62
7
100
AcDbSpline
 70
8
 71
3
 72
8
 73
4
 74
0
 40
0
 40
0
 40
0
 40
0
 40
1
 40
1
 40
1
 40
1
 10
61.576577
 20
95.056583
 30
0.0
 10
61.543732
 20
94.582708
 30
0.0
 10
61.465785
 20
94.142372
 30
0.0
 10
61.403362
 20
94.078060
 30
0.0
  0
SPLINE
  5
10a
100
AcDbEntity
  8
Trace
 62
7
100
AcDbSpline
 70
8
 71
3
 72
8
 73
4
 74
0
 40
0
 40
0
 40
0
 40
0
 40
1
 40
1
 40
1
 40
1
 10
61.403362
 20
94.078060
 30
0.0
 10
61.340939
 20
94.013749
 30
0.0
 10
61.289864
 20
93.556797
 30
0.0
 10
61.289864
 20
93.062612
 30
0.0
  0
SPLINE
  5
10b
100
AcDbEntity
  8
Trace
 62
7
100
AcDbSpline
 70
8
 71
3
 72
8
 73
4
 74
0
 40
0
 40
0
 40
0
 40
0
 40
1
 40
1
 40
1
 40
1
 10
61.289864
 20
93.062612
 30
0.0
 10
61.289864
 20
92.545656
 30
0.0
 10
61.237596
 20
92.164094
 30
0.0
 10
61.166780
 20
92.164094
 30
0.0
  0
SPLINE
  5
10c
100
AcDbEntity
  8
Trace
 62
7
100
AcDbSpline
 70
8
 71
3
 72
8
 73
4
 74
0
 40
0
 40
0
 40
0
 40
0
 40
1
 40
1
 40
1
 40
1
 10
61.166780
 20
92.164094
 30
0.0
 10
61.095750
 20
92.164094
 30
0.0
 10
61.043696
 20
91.776747
 30
0.0
 10
61.043696
 20
91.248223
 30
0.0
  0
SPLINE
  5
10d
100
AcDbEntity
  8
Trace
 62
7
100
AcDbSpline
 70
8
 71
3
 72
8
 73
4
 74
0
 40
0
 40
0
 40
0
 40
0
 40
1
 40
1
 40
1
 40
1
 10
61.043696
 20
91.248223
 30
0.0
 10
61.043696
 20
90.744494
 30
0.0
 10
60.988308
 20
90.298121
 30
0.0
 10
60.920611
 20
90.256282
 30
0.0
  0
SPLINE
  5
10e
100
AcDbEntity
  8
Trace
 62
7
100
AcDbSpline
 70
8
 71
3
 72
8
 73
4
 74
0
 40
0
 40
0
 40
0
 40
0
 40
1
 40
1
 40
1
 40
1
 10
60.920611
 20
90.256282
 30
0.0
 10
60.852913
 20
90.214443
 30
0.0
 10
60.797525
 20
89.964654
 30
0.0
 10
60.797525
 20
89.701195
 30
0.0
  0
SPLINE
  5
10f
100
AcDbEntity
  8
Trace
 62
7
100
AcDbSpline
 70
8
 71
3
 72
8
 73
4
 74
0
 40
0
 40
0
 40
0
 40
0
 40
1
 40
1
 40
1
 40
1
 10
60.797525
 20
89.701195
 30
0.0
 10
60.797525
 20
89.437737
 30
0.0
 10
60.737549
 20
88.942512
 30
0.0
 10
60.664241
 20
88.600698
 30
0.0
  0
LWPOLYLINE
  5
110
100
AcDbEntity
  8
Trace
 62
7
100
AcDbPolyline
 90
5
 70
0
 10
28.118200
 20
96.441286
 30
0.0
 10
28.208803
 20
96.718226
 30
0.0
 10
45.009475
 20
96.718226
 30
0.0
 10
61.810143
 20
96.718226
 30
0.0
 10
61.723217
 20
96.318201
 30
0.0
  0
LWPOLYLINE
  5
111
100
AcDbEntity
  8
Trace
 62
7
100
AcDbPolyline
 90
5
 70
0
 10
60.664241
 20
88.600698
 30
0.0
 10
60.530957
 20
87.979216
 30
0.0
 10
43.678560
 20
87.979216
 30
0.0
 10
26.826162
 20
87.979216
 30
0.0
 10
26.826162
 20
88.341206
 30
0.0
  0
SPLINE
  5
112
100
AcDbEntity
  8
Trace
 62
7
100
AcDbSpline
 70
8
 71
3
 72
8
 73
4
 74
0
 40
0
 40
0
 40
0
 40
0
 40
1
 40
1
 40
1
 40
1
 10
15.927220
 20
92.865269
 30
0.0
 10
15.927220
 20
92.865269
 30
0.0
 10
17.754934
 20
98.087308
 30
0.0
 10
25.762061
 20
97.216968
 30
0.0
  0
LWPOLYLINE
  5
113
100
AcDbEntity
  8
Trace
 62
7
100
AcDbPolyline
 90
2
 70
0
 10
9.921875
 20
51.959293
 30
0.0
 10
15.927220
 20
92.865269
 30
0.0
  0
LWPOLYLINE
  5
114
100
AcDbEntity
  8
Trace
 62
7
100
AcDbPolyline
 90
4
 70
0
 10
25.762061
 20
97.216968
 30
0.0
 10
19.930784
 20
57.007265
 30
0.0
 10
14.534677
 20
51.872258
 30
0.0
 10
9.921875
 20
51.959293
 30
0.0
  0
ENDSEC
  0
SECTION
  2
OBJECTS
  0
DICTIONARY
  5
C
330
0
100
AcDbDictionary
  3
ACAD_GROUP
350
D
  3
ACAD_MLINESTYLE
350
17
  0
DICTIONARY
  5
D
330
C
100
AcDbDictionary
  0
DICTIONARY
  5
1A
330
C
100
AcDbDictionary
  0
DICTIONARY
  5
17
330
C
100
AcDbDictionary
  3
STANDARD
350
18
  0
DICTIONARY
  5
19
330
C
100
AcDbDictionary
  0
ENDSEC
  0
EOF
