  0
SECTION
  2
HEADER
  9
$ACADVER
  1
AC1014
  9
$HANDSEED
  5
FFFF
  9
$MEASUREMENT
 70
     1
  0
ENDSEC
  0
SECTION
  2
TABLES
  0
TABLE
  2
VPORT
  5
8
330
0
100
AcDbSymbolTable
 70
     4
  0
VPORT
  5
2E
330
8
100
AcDbSymbolTableRecord
100
AcDbViewportTableRecord
  2
*ACTIVE
 70
     0
 10
0.0
 20
0.0
 11
1.0
 21
1.0
 12
210.0
 22
148.5
 13
0.0
 23
0.0
 14
10.0
 24
10.0
 15
10.0
 25
10.0
 16
0.0
 26
0.0
 36
1.0
 17
0.0
 27
0.0
 37
0.0
 40
341.0
 41
1.24
 42
50.0
 43
0.0
 44
0.0
 50
0.0
 51
0.0
 71
     0
 72
   100
 73
     1
 74
     3
 75
     0
 76
     0
 77
     0
 78
     0
  0
ENDTAB
  0
TABLE
  2
LTYPE
  5
5
330
0
100
AcDbSymbolTable
 70
     1
  0
LTYPE
  5
14
330
5
100
AcDbSymbolTableRecord
100
AcDbLinetypeTableRecord
  2
BYBLOCK
 70
     0
  3

 72
    65
 73
     0
 40
0.0
  0
LTYPE
  5
15
330
5
100
AcDbSymbolTableRecord
100
AcDbLinetypeTableRecord
  2
BYLAYER
 70
     0
  3

 72
    65
 73
     0
 40
0.0
  0
LTYPE
  5
16
330
5
100
AcDbSymbolTableRecord
100
AcDbLinetypeTableRecord
  2
CONTINUOUS
 70
     0
  3
Solid line
 72
    65
 73
     0
 40
0.0
  0
ENDTAB
  0
TABLE
  2
LAYER
  5
2
100
AcDbSymbolTable
 70
2
  0
LAYER
  5
50
100
AcDbSymbolTableRecord
100
AcDbLayerTableRecord
  2
0
 70
0
  6
CONTINUOUS
  0
LAYER
  5
51
100
AcDbSymbolTableRecord
100
AcDbLayerTableRecord
  2
Trace
 70
0
  6
CONTINUOUS
  0
ENDTAB
  0
TABLE
  2
STYLE
  5
3
330
0
100
AcDbSymbolTable
 70
     1
  0
STYLE
  5
11
330
3
100
AcDbSymbolTableRecord
100
AcDbTextStyleTableRecord
  2
STANDARD
 70
     0
 40
0.0
 41
1.0
 50
0.0
 71
     0
 42
2.5
  3
txt
  4

  0
ENDTAB
  0
TABLE
  2
VIEW
  5
6
330
0
100
AcDbSymbolTable
 70
     0
  0
ENDTAB
  0
TABLE
  2
UCS
  5
7
330
0
100
AcDbSymbolTable
 70
     0
  0
ENDTAB
  0
TABLE
  2
APPID
  5
9
330
0
100
AcDbSymbolTable
 70
     2
  0
APPID
  5
12
330
9
100
AcDbSymbolTableRecord
100
AcDbRegAppTableRecord
  2
ACAD
 70
     0
  0
ENDTAB
  0
TABLE
  2
DIMSTYLE
  5
A
330
0
100
AcDbSymbolTable
 70
     1
  0
DIMSTYLE
105
27
330
A
100
AcDbSymbolTableRecord
100
AcDbDimStyleTableRecord
  2
ISO-25
 70
     0
  3

  4

  5

  6

  7

 40
1.0
 41
2.5
 42
0.625
 43
3.75
 44
1.25
 45
0.0
 46
0.0
 47
0.0
 48
0.0
140
2.5
141
2.5
142
0.0
143
0.03937007874016
144
1.0
145
0.0
146
1.0
147
0.625
 71
     0
 72
     0
 73
     0
 74
     0
 75
     0
 76
     0
 77
     1
 78
     8
170
     0
171
     3
172
     1
173
     0
174
     0
175
     0
176
     0
177
     0
178
     0
270
     2
271
     2
272
     2
273
     2
274
     3
340
11
275
     0
280
     0
281
     0
282
     0
283
     0
284
     8
285
     0
286
     0
287
     3
288
     0
  0
ENDTAB
  0
TABLE
  2
BLOCK_RECORD
  5
1
330
0
100
AcDbSymbolTable
 70
     1
  0
BLOCK_RECORD
  5
1F
330
1
100
AcDbSymbolTableRecord
100
AcDbBlockTableRecord
  2
*MODEL_SPACE
  0
BLOCK_RECORD
  5
1B
330
1
100
AcDbSymbolTableRecord
100
AcDbBlockTableRecord
  2
*PAPER_SPACE
  0
ENDTAB
  0
ENDSEC
  0
SECTION
  2
BLOCKS
  0
BLOCK
  5
20
330
1F
100
AcDbEntity
  8
0
100
AcDbBlockBegin
  2
*MODEL_SPACE
 70
     0
 10
0.0
 20
0.0
 30
0.0
  3
*MODEL_SPACE
  1

  0
ENDBLK
  5
21
330
1F
100
AcDbEntity
  8
0
100
AcDbBlockEnd
  0
BLOCK
  5
1C
330
1B
100
AcDbEntity
 67
     1
  8
0
100
AcDbBlockBegin
  2
*PAPER_SPACE
  1

  0
ENDBLK
  5
1D
330
1B
100
AcDbEntity
 67
     1
  8
0
100
AcDbBlockEnd
  0
ENDSEC
  0
SECTION
  2
ENTITIES
  0
LWPOLYLINE
  5
100
100
AcDbEntity
  8
Trace
 62
7
100
AcDbPolyline
 90
4
 70
1
 10
3.662253
 20
14.188363
 30
0.0
 10
8.874468
 20
14.188363
 30
0.0
 10
8.670431
 20
12.722991
 30
0.0
 10
3.439668
 20
12.760089
 30
0.0
  0
SPLINE
  5
101
100
AcDbEntity
  8
Trace
 62
7
100
AcDbSpline
 70
8
 71
3
 72
8
 73
4
 74
0
 40
0
 40
0
 40
0
 40
0
 40
1
 40
1
 40
1
 40
1
 10
1.888998
 20
13.529557
 30
0.0
 10
1.888998
 20
13.529557
 30
0.0
 10
2.164433
 20
14.316525
 30
0.0
 10
3.371104
 20
14.185364
 30
0.0
  0
LWPOLYLINE
  5
102
100
AcDbEntity
  8
Trace
 62
7
100
AcDbPolyline
 90
2
 70
0
 10
0.983995
 20
7.364973
 30
0.0
 10
1.888998
 20
13.529557
 30
0.0
  0
LWPOLYLINE
  5
103
100
AcDbEntity
  8
Trace
 62
7
100
AcDbPolyline
 90
4
 70
0
 10
3.371104
 20
14.185364
 30
0.0
 10
2.492333
 20
8.125709
 30
0.0
 10
1.679142
 20
7.351856
 30
0.0
 10
0.983995
 20
7.364973
 30
0.0
  0
SPLINE
  5
104
100
AcDbEntity
  8
Trace
 62
7
100
AcDbSpline
 70
8
 71
3
 72
8
 73
4
 74
0
 40
0
 40
0
 40
0
 40
0
 40
1
 40
1
 40
1
 40
1
 10
9.115906
 20
14.185364
 30
0.0
 10
9.115906
 20
14.185364
 30
0.0
 10
10.440621
 20
14.290293
 30
0.0
 10
10.375041
 20
13.096724
 30
0.0
  0
LWPOLYLINE
  5
105
100
AcDbEntity
  8
Trace
 62
7
100
AcDbPolyline
 90
2
 70
0
 10
8.224019
 20
8.099476
 30
0.0
 10
9.115906
 20
14.185364
 30
0.0
  0
LWPOLYLINE
  5
106
100
AcDbEntity
  8
Trace
 62
7
100
AcDbPolyline
 90
4
 70
0
 10
10.375041
 20
13.096724
 30
0.0
 10
9.509386
 20
7.378089
 30
0.0
 10
8.814239
 20
7.338740
 30
0.0
 10
8.224019
 20
8.099476
 30
0.0
  0
LWPOLYLINE
  5
107
100
AcDbEntity
  8
Trace
 62
7
100
AcDbPolyline
 90
6
 70
1
 10
2.610377
 20
7.876502
 30
0.0
 10
8.079744
 20
7.863386
 30
0.0
 10
8.617499
 20
7.181347
 30
0.0
 10
7.856772
 20
6.433727
 30
0.0
 10
2.387405
 20
6.420611
 30
0.0
 10
1.849650
 20
7.155114
 30
0.0
  0
SPLINE
  5
108
100
AcDbEntity
  8
Trace
 62
7
100
AcDbSpline
 70
8
 71
3
 72
8
 73
4
 74
0
 40
0
 40
0
 40
0
 40
0
 40
1
 40
1
 40
1
 40
1
 10
0.026527
 20
1.226621
 30
0.0
 10
0.026527
 20
1.226621
 30
0.0
 10
-0.157096
 20
0.046169
 30
0.0
 10
1.416822
 20
0.137981
 30
0.0
  0
LWPOLYLINE
  5
109
100
AcDbEntity
  8
Trace
 62
7
100
AcDbPolyline
 90
2
 70
0
 10
0.865951
 20
6.971489
 30
0.0
 10
0.026527
 20
1.226621
 30
0.0
  0
LWPOLYLINE
  5
10a
100
AcDbEntity
  8
Trace
 62
7
100
AcDbPolyline
 90
4
 70
0
 10
1.416822
 20
0.137981
 30
0.0
 10
2.243129
 20
6.184520
 30
0.0
 10
1.652910
 20
6.958372
 30
0.0
 10
0.865951
 20
6.971489
 30
0.0
  0
LWPOLYLINE
  5
10b
100
AcDbEntity
  8
Trace
 62
7
100
AcDbPolyline
 90
4
 70
1
 10
1.666026
 20
0.124865
 30
0.0
 10
6.728797
 20
0.151098
 30
0.0
 10
6.925537
 20
1.567640
 30
0.0
 10
1.836534
 20
1.580756
 30
0.0
  0
SPLINE
  5
10c
100
AcDbEntity
  8
Trace
 62
7
100
AcDbSpline
 70
8
 71
3
 72
8
 73
4
 74
0
 40
0
 40
0
 40
0
 40
0
 40
1
 40
1
 40
1
 40
1
 10
8.617499
 20
0.911833
 30
0.0
 10
8.617499
 20
0.911833
 30
0.0
 10
8.578151
 20
-0.032529
 30
0.0
 10
6.991116
 20
0.151097
 30
0.0
  0
LWPOLYLINE
  5
10d
100
AcDbEntity
  8
Trace
 62
7
100
AcDbPolyline
 90
7
 70
0
 10
6.991116
 20
0.151097
 30
0.0
 10
7.883004
 20
6.105823
 30
0.0
 10
8.788006
 20
6.945256
 30
0.0
 10
9.522502
 20
6.958372
 30
0.0
 10
9.522502
 20
6.958372
 30
0.0
 10
9.522502
 20
6.958372
 30
0.0
 10
8.617499
 20
0.911833
 30
0.0
  0
SPLINE
  5
10e
100
AcDbEntity
  8
Trace
 62
7
100
AcDbSpline
 70
8
 71
3
 72
8
 73
4
 74
0
 40
0
 40
0
 40
0
 40
0
 40
1
 40
1
 40
1
 40
1
 10
10.991193
 20
0.859369
 30
0.0
 10
10.991193
 20
0.559576
 30
0.0
 10
10.825007
 20
0.282555
 30
0.0
 10
10.555236
 20
0.132659
 30
0.0
  0
SPLINE
  5
10f
100
AcDbEntity
  8
Trace
 62
7
100
AcDbSpline
 70
8
 71
3
 72
8
 73
4
 74
0
 40
0
 40
0
 40
0
 40
0
 40
1
 40
1
 40
1
 40
1
 10
10.555236
 20
0.132659
 30
0.0
 10
10.285465
 20
-0.017238
 30
0.0
 10
9.953094
 20
-0.017238
 30
0.0
 10
9.683323
 20
0.132659
 30
0.0
  0
SPLINE
  5
110
100
AcDbEntity
  8
Trace
 62
7
100
AcDbSpline
 70
8
 71
3
 72
8
 73
4
 74
0
 40
0
 40
0
 40
0
 40
0
 40
1
 40
1
 40
1
 40
1
 10
9.683323
 20
0.132659
 30
0.0
 10
9.413552
 20
0.282555
 30
0.0
 10
9.247366
 20
0.559576
 30
0.0
 10
9.247366
 20
0.859369
 30
0.0
  0
SPLINE
  5
111
100
AcDbEntity
  8
Trace
 62
7
100
AcDbSpline
 70
8
 71
3
 72
8
 73
4
 74
0
 40
0
 40
0
 40
0
 40
0
 40
1
 40
1
 40
1
 40
1
 10
9.247366
 20
0.859369
 30
0.0
 10
9.247366
 20
1.159162
 30
0.0
 10
9.413552
 20
1.436183
 30
0.0
 10
9.683323
 20
1.586080
 30
0.0
  0
SPLINE
  5
112
100
AcDbEntity
  8
Trace
 62
7
100
AcDbSpline
 70
8
 71
3
 72
8
 73
4
 74
0
 40
0
 40
0
 40
0
 40
0
 40
1
 40
1
 40
1
 40
1
 10
9.683323
 20
1.586080
 30
0.0
 10
9.953094
 20
1.735976
 30
0.0
 10
10.285465
 20
1.735976
 30
0.0
 10
10.555236
 20
1.586080
 30
0.0
  0
SPLINE
  5
113
100
AcDbEntity
  8
Trace
 62
7
100
AcDbSpline
 70
8
 71
3
 72
8
 73
4
 74
0
 40
0
 40
0
 40
0
 40
0
 40
1
 40
1
 40
1
 40
1
 10
10.555236
 20
1.586080
 30
0.0
 10
10.825007
 20
1.436183
 30
0.0
 10
10.991193
 20
1.159162
 30
0.0
 10
10.991193
 20
0.859369
 30
0.0
  0
LWPOLYLINE
  5
114
100
AcDbEntity
  8
Trace
 62
7
100
AcDbPolyline
 90
1
 70
1
 10
6.991116
 20
0.151097
 30
0.0
  0
LWPOLYLINE
  5
115
100
AcDbEntity
  8
Trace
 62
7
100
AcDbPolyline
 90
1
 70
1
 10
10.991193
 20
0.859369
 30
0.0
  0
ENDSEC
  0
SECTION
  2
OBJECTS
  0
DICTIONARY
  5
C
330
0
100
AcDbDictionary
  3
ACAD_GROUP
350
D
  3
ACAD_MLINESTYLE
350
17
  0
DICTIONARY
  5
D
330
C
100
AcDbDictionary
  0
DICTIONARY
  5
1A
330
C
100
AcDbDictionary
  0
DICTIONARY
  5
17
330
C
100
AcDbDictionary
  3
STANDARD
350
18
  0
DICTIONARY
  5
19
330
C
100
AcDbDictionary
  0
ENDSEC
  0
EOF
