G04 EAGLE Gerber RS-274X export*
G75*
%MOMM*%
%FSLAX34Y34*%
%LPD*%
%INBottom Copper*%
%IPPOS*%
%AMOC8*
5,1,8,0,0,1.08239X$1,22.5*%
G01*
%ADD10C,1.676400*%
%ADD11C,1.148000*%
%ADD12C,1.453900*%
%ADD13C,1.800000*%
%ADD14C,1.260000*%
%ADD15C,1.524000*%
%ADD16C,2.700000*%
%ADD17C,3.000000*%
%ADD18C,1.750000*%
%ADD19C,1.600000*%
%ADD20C,3.300000*%
%ADD21C,0.254000*%
%ADD22C,0.756400*%
%ADD23C,1.270000*%

G36*
X381485Y298732D02*
X381485Y298732D01*
X381493Y298731D01*
X381642Y298752D01*
X381792Y298771D01*
X381800Y298774D01*
X381808Y298775D01*
X381947Y298832D01*
X382088Y298888D01*
X382095Y298893D01*
X382103Y298896D01*
X382222Y298985D01*
X382345Y299074D01*
X382351Y299081D01*
X382357Y299086D01*
X382451Y299202D01*
X382548Y299319D01*
X382552Y299327D01*
X382557Y299334D01*
X382619Y299471D01*
X382684Y299607D01*
X382685Y299615D01*
X382689Y299623D01*
X382727Y299780D01*
X383579Y304616D01*
X388462Y313073D01*
X395942Y319349D01*
X405118Y322689D01*
X414882Y322689D01*
X424058Y319349D01*
X427754Y316248D01*
X427825Y316202D01*
X427889Y316149D01*
X427958Y316117D01*
X428021Y316076D01*
X428101Y316049D01*
X428177Y316013D01*
X428251Y315999D01*
X428323Y315975D01*
X428407Y315969D01*
X428490Y315954D01*
X428565Y315958D01*
X428640Y315953D01*
X428723Y315968D01*
X428807Y315973D01*
X428879Y315997D01*
X428953Y316010D01*
X429030Y316045D01*
X429109Y316071D01*
X429173Y316112D01*
X429242Y316143D01*
X429307Y316197D01*
X429378Y316241D01*
X429430Y316297D01*
X429489Y316344D01*
X429538Y316412D01*
X429596Y316473D01*
X429633Y316539D01*
X429678Y316600D01*
X429709Y316678D01*
X429750Y316752D01*
X429768Y316825D01*
X429797Y316895D01*
X429808Y316978D01*
X429829Y317060D01*
X429838Y317202D01*
X429839Y317210D01*
X429839Y317213D01*
X429839Y317220D01*
X429839Y538570D01*
X429824Y538688D01*
X429817Y538807D01*
X429804Y538845D01*
X429799Y538886D01*
X429756Y538996D01*
X429719Y539109D01*
X429697Y539144D01*
X429682Y539181D01*
X429613Y539277D01*
X429549Y539378D01*
X429519Y539406D01*
X429496Y539439D01*
X429404Y539515D01*
X429317Y539596D01*
X429282Y539616D01*
X429251Y539641D01*
X429143Y539692D01*
X429039Y539750D01*
X428999Y539760D01*
X428963Y539777D01*
X428846Y539799D01*
X428731Y539829D01*
X428671Y539833D01*
X428651Y539837D01*
X428630Y539835D01*
X428570Y539839D01*
X359000Y539839D01*
X358882Y539824D01*
X358763Y539817D01*
X358725Y539804D01*
X358684Y539799D01*
X358574Y539756D01*
X358461Y539719D01*
X358426Y539697D01*
X358389Y539682D01*
X358293Y539613D01*
X358192Y539549D01*
X358164Y539519D01*
X358131Y539496D01*
X358056Y539404D01*
X357974Y539317D01*
X357954Y539282D01*
X357929Y539251D01*
X357878Y539143D01*
X357820Y539039D01*
X357810Y538999D01*
X357793Y538963D01*
X357771Y538846D01*
X357741Y538731D01*
X357737Y538671D01*
X357733Y538651D01*
X357735Y538630D01*
X357731Y538570D01*
X357731Y476526D01*
X263103Y381898D01*
X263042Y381819D01*
X262974Y381747D01*
X262945Y381694D01*
X262908Y381646D01*
X262868Y381555D01*
X262820Y381469D01*
X262805Y381410D01*
X262781Y381354D01*
X262766Y381256D01*
X262741Y381161D01*
X262735Y381061D01*
X262731Y381040D01*
X262733Y381028D01*
X262731Y381000D01*
X262731Y300000D01*
X262746Y299882D01*
X262753Y299763D01*
X262766Y299725D01*
X262771Y299684D01*
X262814Y299574D01*
X262851Y299461D01*
X262873Y299426D01*
X262888Y299389D01*
X262958Y299293D01*
X263021Y299192D01*
X263051Y299164D01*
X263074Y299131D01*
X263166Y299056D01*
X263253Y298974D01*
X263288Y298954D01*
X263319Y298929D01*
X263427Y298878D01*
X263531Y298820D01*
X263571Y298810D01*
X263607Y298793D01*
X263724Y298771D01*
X263839Y298741D01*
X263900Y298737D01*
X263920Y298733D01*
X263940Y298735D01*
X264000Y298731D01*
X381477Y298731D01*
X381485Y298732D01*
G37*
G36*
X247118Y298746D02*
X247118Y298746D01*
X247237Y298753D01*
X247275Y298766D01*
X247316Y298771D01*
X247426Y298814D01*
X247539Y298851D01*
X247574Y298873D01*
X247611Y298888D01*
X247707Y298958D01*
X247808Y299021D01*
X247836Y299051D01*
X247869Y299074D01*
X247945Y299166D01*
X248026Y299253D01*
X248046Y299288D01*
X248071Y299319D01*
X248122Y299427D01*
X248180Y299531D01*
X248190Y299571D01*
X248207Y299607D01*
X248229Y299724D01*
X248259Y299839D01*
X248263Y299900D01*
X248267Y299920D01*
X248265Y299940D01*
X248269Y300000D01*
X248269Y445000D01*
X248257Y445098D01*
X248254Y445197D01*
X248237Y445255D01*
X248229Y445316D01*
X248193Y445408D01*
X248165Y445503D01*
X248135Y445555D01*
X248112Y445611D01*
X248054Y445691D01*
X248004Y445777D01*
X247938Y445852D01*
X247926Y445869D01*
X247916Y445876D01*
X247898Y445898D01*
X237898Y455898D01*
X237819Y455958D01*
X237747Y456026D01*
X237694Y456055D01*
X237646Y456092D01*
X237555Y456132D01*
X237469Y456180D01*
X237410Y456195D01*
X237354Y456219D01*
X237256Y456234D01*
X237161Y456259D01*
X237061Y456265D01*
X237040Y456269D01*
X237028Y456267D01*
X237000Y456269D01*
X220000Y456269D01*
X219902Y456257D01*
X219803Y456254D01*
X219745Y456237D01*
X219684Y456229D01*
X219592Y456193D01*
X219497Y456165D01*
X219445Y456135D01*
X219389Y456112D01*
X219309Y456054D01*
X219223Y456004D01*
X219148Y455938D01*
X219131Y455926D01*
X219124Y455916D01*
X219103Y455898D01*
X164474Y401269D01*
X55000Y401269D01*
X54882Y401254D01*
X54763Y401247D01*
X54725Y401234D01*
X54684Y401229D01*
X54574Y401186D01*
X54461Y401149D01*
X54426Y401127D01*
X54389Y401112D01*
X54293Y401043D01*
X54192Y400979D01*
X54164Y400949D01*
X54131Y400926D01*
X54056Y400834D01*
X53974Y400747D01*
X53954Y400712D01*
X53929Y400681D01*
X53878Y400573D01*
X53820Y400469D01*
X53810Y400429D01*
X53793Y400393D01*
X53771Y400276D01*
X53741Y400161D01*
X53737Y400101D01*
X53733Y400081D01*
X53735Y400060D01*
X53731Y400000D01*
X53731Y300000D01*
X53746Y299882D01*
X53753Y299763D01*
X53766Y299725D01*
X53771Y299684D01*
X53814Y299574D01*
X53851Y299461D01*
X53873Y299426D01*
X53888Y299389D01*
X53958Y299293D01*
X54021Y299192D01*
X54051Y299164D01*
X54074Y299131D01*
X54166Y299056D01*
X54253Y298974D01*
X54288Y298954D01*
X54319Y298929D01*
X54427Y298878D01*
X54531Y298820D01*
X54571Y298810D01*
X54607Y298793D01*
X54724Y298771D01*
X54839Y298741D01*
X54900Y298737D01*
X54920Y298733D01*
X54940Y298735D01*
X55000Y298731D01*
X247000Y298731D01*
X247118Y298746D01*
G37*
G36*
X275098Y408743D02*
X275098Y408743D01*
X275197Y408746D01*
X275255Y408763D01*
X275316Y408771D01*
X275408Y408807D01*
X275503Y408835D01*
X275555Y408865D01*
X275611Y408888D01*
X275691Y408946D01*
X275777Y408996D01*
X275852Y409062D01*
X275869Y409074D01*
X275876Y409084D01*
X275898Y409103D01*
X345898Y479103D01*
X345958Y479181D01*
X346026Y479253D01*
X346055Y479306D01*
X346092Y479354D01*
X346132Y479445D01*
X346180Y479531D01*
X346195Y479590D01*
X346219Y479646D01*
X346234Y479744D01*
X346259Y479839D01*
X346265Y479939D01*
X346269Y479960D01*
X346267Y479972D01*
X346269Y480000D01*
X346269Y538570D01*
X346254Y538688D01*
X346247Y538807D01*
X346234Y538845D01*
X346229Y538886D01*
X346186Y538996D01*
X346149Y539109D01*
X346127Y539144D01*
X346112Y539181D01*
X346042Y539277D01*
X345979Y539378D01*
X345949Y539406D01*
X345926Y539439D01*
X345834Y539515D01*
X345747Y539596D01*
X345712Y539616D01*
X345681Y539641D01*
X345573Y539692D01*
X345469Y539750D01*
X345429Y539760D01*
X345393Y539777D01*
X345276Y539799D01*
X345161Y539829D01*
X345100Y539833D01*
X345080Y539837D01*
X345060Y539835D01*
X345000Y539839D01*
X160000Y539839D01*
X159882Y539824D01*
X159763Y539817D01*
X159725Y539804D01*
X159684Y539799D01*
X159574Y539756D01*
X159461Y539719D01*
X159426Y539697D01*
X159389Y539682D01*
X159293Y539613D01*
X159192Y539549D01*
X159164Y539519D01*
X159131Y539496D01*
X159056Y539404D01*
X158974Y539317D01*
X158954Y539282D01*
X158929Y539251D01*
X158878Y539143D01*
X158820Y539039D01*
X158810Y538999D01*
X158793Y538963D01*
X158771Y538846D01*
X158741Y538731D01*
X158737Y538671D01*
X158733Y538651D01*
X158735Y538630D01*
X158731Y538570D01*
X158731Y470000D01*
X158746Y469882D01*
X158753Y469763D01*
X158766Y469725D01*
X158771Y469684D01*
X158814Y469574D01*
X158851Y469461D01*
X158873Y469426D01*
X158888Y469389D01*
X158958Y469293D01*
X159021Y469192D01*
X159051Y469164D01*
X159074Y469131D01*
X159166Y469056D01*
X159253Y468974D01*
X159288Y468954D01*
X159319Y468929D01*
X159427Y468878D01*
X159531Y468820D01*
X159571Y468810D01*
X159607Y468793D01*
X159724Y468771D01*
X159839Y468741D01*
X159900Y468737D01*
X159920Y468733D01*
X159940Y468735D01*
X160000Y468731D01*
X239474Y468731D01*
X258731Y449474D01*
X258731Y410000D01*
X258746Y409882D01*
X258753Y409763D01*
X258766Y409725D01*
X258771Y409684D01*
X258814Y409574D01*
X258851Y409461D01*
X258873Y409426D01*
X258888Y409389D01*
X258958Y409293D01*
X259021Y409192D01*
X259051Y409164D01*
X259074Y409131D01*
X259166Y409056D01*
X259253Y408974D01*
X259288Y408954D01*
X259319Y408929D01*
X259427Y408878D01*
X259531Y408820D01*
X259571Y408810D01*
X259607Y408793D01*
X259724Y408771D01*
X259839Y408741D01*
X259900Y408737D01*
X259920Y408733D01*
X259940Y408735D01*
X260000Y408731D01*
X275000Y408731D01*
X275098Y408743D01*
G37*
D10*
X54000Y133900D03*
X155600Y133900D03*
X333900Y204000D03*
X333900Y102400D03*
D11*
X305600Y52800D03*
X280600Y52800D03*
D12*
X194700Y183450D03*
X194700Y155550D03*
X296300Y155550D03*
X296300Y183450D03*
D13*
X330600Y502500D03*
X381400Y502500D03*
D14*
X154300Y33250D03*
X154300Y105650D03*
X218100Y33250D03*
X218100Y105650D03*
X376900Y195650D03*
X376900Y123250D03*
X366900Y99750D03*
X366900Y27350D03*
X69300Y181900D03*
X141700Y181900D03*
D15*
X96520Y34100D02*
X81280Y34100D01*
X81280Y59500D02*
X96520Y59500D01*
X96520Y84900D02*
X81280Y84900D01*
D16*
X332100Y238000D03*
X112100Y238000D03*
D17*
X350100Y358000D03*
X74100Y358000D03*
D18*
X177000Y437950D02*
X177000Y455450D01*
X272000Y484950D02*
X272000Y502450D01*
X272000Y455450D02*
X272000Y437950D01*
D19*
X232500Y488700D02*
X216500Y488700D01*
D20*
X224500Y428700D03*
D18*
X177000Y484950D02*
X177000Y502450D01*
D17*
X224500Y521200D03*
D21*
X41430Y146470D02*
X51450Y136450D01*
X54000Y133900D01*
D22*
X85000Y480000D03*
D21*
X85000Y460000D01*
X40000Y415000D01*
X40000Y147900D01*
X41430Y146470D01*
D22*
X180000Y530000D03*
X265000Y530000D03*
X330000Y530000D03*
D23*
X197000Y238000D02*
X112100Y238000D01*
X279450Y155550D02*
X296300Y155550D01*
X279450Y155550D02*
X197000Y238000D01*
X268000Y155550D02*
X296300Y155550D01*
X268000Y155550D02*
X218100Y105650D01*
X296300Y155550D02*
X333900Y117950D01*
X333900Y102400D01*
D22*
X230000Y370000D03*
X190000Y370000D03*
X230000Y325000D03*
X190000Y325000D03*
X150000Y355000D03*
X150000Y325000D03*
X110000Y355000D03*
X110000Y325000D03*
D23*
X88900Y34100D02*
X153450Y34100D01*
X154300Y33250D01*
X125100Y84900D02*
X88900Y84900D01*
X125100Y84900D02*
X140000Y70000D01*
X185000Y70000D01*
X218100Y36900D01*
X218100Y33250D01*
D21*
X376900Y100000D02*
X376900Y123250D01*
X366900Y100000D02*
X366900Y99750D01*
X315600Y52800D02*
X305600Y52800D01*
X315600Y52800D02*
X362800Y100000D01*
X366900Y100000D01*
X376900Y100000D01*
X193150Y181900D02*
X141700Y181900D01*
X193150Y181900D02*
X194700Y183450D01*
X177250Y155550D02*
X155600Y133900D01*
X177250Y155550D02*
X194700Y155550D01*
X366900Y205650D02*
X376900Y195650D01*
X366900Y205650D02*
X366900Y341200D01*
X350100Y358000D01*
D22*
X380000Y455000D03*
X380000Y410000D03*
X380000Y365000D03*
X380000Y320000D03*
X340000Y320000D03*
X340000Y410000D03*
X380000Y530000D03*
X415000Y530000D03*
X415000Y455000D03*
X415000Y410000D03*
X415000Y365000D03*
M02*
