G04 EAGLE Gerber RS-274X export*
G75*
%MOMM*%
%FSLAX34Y34*%
%LPD*%
%INTop Copper*%
%IPPOS*%
%AMOC8*
5,1,8,0,0,1.08239X$1,22.5*%
G01*
%ADD10C,1.676400*%
%ADD11C,1.148000*%
%ADD12C,1.453900*%
%ADD13C,1.800000*%
%ADD14C,1.260000*%
%ADD15C,1.524000*%
%ADD16R,2.800000X2.200000*%
%ADD17R,2.800000X2.800000*%
%ADD18C,2.700000*%
%ADD19C,3.000000*%
%ADD20C,1.750000*%
%ADD21C,1.600000*%
%ADD22C,3.300000*%
%ADD23C,0.254000*%
%ADD24C,0.756400*%
%ADD25C,1.270000*%

G36*
X428688Y10176D02*
X428688Y10176D01*
X428807Y10183D01*
X428845Y10196D01*
X428886Y10201D01*
X428996Y10244D01*
X429109Y10281D01*
X429144Y10303D01*
X429181Y10318D01*
X429277Y10387D01*
X429378Y10451D01*
X429406Y10481D01*
X429439Y10504D01*
X429515Y10596D01*
X429596Y10683D01*
X429616Y10718D01*
X429641Y10749D01*
X429692Y10857D01*
X429750Y10961D01*
X429760Y11001D01*
X429777Y11037D01*
X429799Y11154D01*
X429829Y11269D01*
X429833Y11329D01*
X429837Y11349D01*
X429835Y11370D01*
X429839Y11430D01*
X429839Y37780D01*
X429829Y37863D01*
X429828Y37947D01*
X429809Y38020D01*
X429799Y38095D01*
X429768Y38174D01*
X429747Y38255D01*
X429710Y38321D01*
X429682Y38391D01*
X429633Y38459D01*
X429592Y38532D01*
X429540Y38587D01*
X429496Y38648D01*
X429431Y38702D01*
X429373Y38763D01*
X429309Y38803D01*
X429251Y38851D01*
X429175Y38887D01*
X429103Y38932D01*
X429031Y38955D01*
X428963Y38987D01*
X428881Y39002D01*
X428800Y39028D01*
X428725Y39032D01*
X428651Y39047D01*
X428567Y39041D01*
X428483Y39046D01*
X428409Y39031D01*
X428333Y39027D01*
X428253Y39001D01*
X428171Y38985D01*
X428103Y38952D01*
X428031Y38929D01*
X427960Y38884D01*
X427884Y38848D01*
X427769Y38763D01*
X427762Y38759D01*
X427760Y38756D01*
X427754Y38752D01*
X424058Y35651D01*
X414882Y32311D01*
X405118Y32311D01*
X395942Y35651D01*
X388462Y41927D01*
X383579Y50384D01*
X381884Y60000D01*
X383579Y69616D01*
X388462Y78073D01*
X395942Y84349D01*
X405118Y87689D01*
X414882Y87689D01*
X424058Y84349D01*
X427754Y81248D01*
X427825Y81202D01*
X427889Y81149D01*
X427958Y81117D01*
X428021Y81076D01*
X428101Y81049D01*
X428177Y81013D01*
X428251Y80999D01*
X428323Y80975D01*
X428407Y80969D01*
X428490Y80954D01*
X428565Y80958D01*
X428640Y80953D01*
X428723Y80968D01*
X428807Y80973D01*
X428879Y80997D01*
X428953Y81010D01*
X429030Y81045D01*
X429109Y81071D01*
X429173Y81112D01*
X429242Y81143D01*
X429307Y81197D01*
X429378Y81241D01*
X429430Y81297D01*
X429489Y81344D01*
X429538Y81412D01*
X429596Y81473D01*
X429633Y81539D01*
X429678Y81600D01*
X429709Y81678D01*
X429750Y81752D01*
X429768Y81825D01*
X429797Y81895D01*
X429808Y81978D01*
X429829Y82060D01*
X429838Y82202D01*
X429839Y82210D01*
X429839Y82213D01*
X429839Y82220D01*
X429839Y272780D01*
X429829Y272863D01*
X429828Y272947D01*
X429809Y273020D01*
X429799Y273095D01*
X429768Y273174D01*
X429747Y273255D01*
X429710Y273321D01*
X429682Y273391D01*
X429633Y273459D01*
X429592Y273532D01*
X429540Y273587D01*
X429496Y273648D01*
X429431Y273702D01*
X429373Y273763D01*
X429309Y273803D01*
X429251Y273851D01*
X429175Y273887D01*
X429103Y273932D01*
X429031Y273955D01*
X428963Y273987D01*
X428881Y274002D01*
X428800Y274028D01*
X428725Y274032D01*
X428651Y274047D01*
X428567Y274041D01*
X428483Y274046D01*
X428409Y274031D01*
X428333Y274027D01*
X428253Y274001D01*
X428171Y273985D01*
X428103Y273952D01*
X428031Y273929D01*
X427960Y273884D01*
X427884Y273848D01*
X427769Y273763D01*
X427762Y273759D01*
X427760Y273756D01*
X427754Y273752D01*
X424058Y270651D01*
X414882Y267311D01*
X405118Y267311D01*
X395942Y270651D01*
X388462Y276927D01*
X383579Y285384D01*
X383432Y286220D01*
X383429Y286228D01*
X383429Y286237D01*
X383382Y286380D01*
X383338Y286524D01*
X383334Y286531D01*
X383331Y286539D01*
X383250Y286667D01*
X383171Y286795D01*
X383165Y286801D01*
X383161Y286808D01*
X383050Y286912D01*
X382943Y287016D01*
X382935Y287020D01*
X382929Y287026D01*
X382797Y287099D01*
X382666Y287173D01*
X382658Y287176D01*
X382651Y287180D01*
X382506Y287217D01*
X382359Y287257D01*
X382351Y287257D01*
X382343Y287259D01*
X382182Y287269D01*
X296269Y287269D01*
X296269Y429474D01*
X345898Y479103D01*
X345958Y479181D01*
X346026Y479253D01*
X346055Y479306D01*
X346092Y479354D01*
X346132Y479445D01*
X346180Y479531D01*
X346195Y479590D01*
X346219Y479646D01*
X346234Y479743D01*
X346259Y479839D01*
X346265Y479939D01*
X346269Y479960D01*
X346267Y479972D01*
X346269Y480000D01*
X346269Y538570D01*
X346254Y538688D01*
X346247Y538807D01*
X346234Y538845D01*
X346229Y538886D01*
X346186Y538996D01*
X346149Y539109D01*
X346127Y539144D01*
X346112Y539181D01*
X346042Y539277D01*
X345979Y539378D01*
X345949Y539406D01*
X345926Y539439D01*
X345834Y539515D01*
X345747Y539596D01*
X345712Y539616D01*
X345681Y539641D01*
X345573Y539692D01*
X345469Y539750D01*
X345429Y539760D01*
X345393Y539777D01*
X345276Y539799D01*
X345161Y539829D01*
X345100Y539833D01*
X345080Y539837D01*
X345060Y539835D01*
X345000Y539839D01*
X160000Y539839D01*
X159882Y539824D01*
X159763Y539817D01*
X159725Y539804D01*
X159684Y539799D01*
X159574Y539756D01*
X159461Y539719D01*
X159426Y539697D01*
X159389Y539682D01*
X159293Y539613D01*
X159192Y539549D01*
X159164Y539519D01*
X159131Y539496D01*
X159056Y539404D01*
X158974Y539317D01*
X158954Y539282D01*
X158929Y539251D01*
X158878Y539143D01*
X158820Y539039D01*
X158810Y538999D01*
X158793Y538963D01*
X158771Y538846D01*
X158741Y538731D01*
X158737Y538671D01*
X158733Y538651D01*
X158735Y538630D01*
X158731Y538570D01*
X158731Y470000D01*
X158746Y469882D01*
X158753Y469763D01*
X158766Y469725D01*
X158771Y469684D01*
X158814Y469574D01*
X158851Y469461D01*
X158873Y469426D01*
X158888Y469389D01*
X158958Y469293D01*
X159021Y469192D01*
X159051Y469164D01*
X159074Y469131D01*
X159166Y469056D01*
X159253Y468974D01*
X159288Y468954D01*
X159319Y468929D01*
X159427Y468878D01*
X159531Y468820D01*
X159571Y468810D01*
X159607Y468793D01*
X159724Y468771D01*
X159839Y468741D01*
X159900Y468737D01*
X159920Y468733D01*
X159940Y468735D01*
X160000Y468731D01*
X239474Y468731D01*
X262731Y445474D01*
X262731Y201230D01*
X262746Y201112D01*
X262753Y200993D01*
X262766Y200955D01*
X262771Y200914D01*
X262814Y200804D01*
X262851Y200691D01*
X262873Y200656D01*
X262888Y200619D01*
X262958Y200523D01*
X263021Y200422D01*
X263051Y200394D01*
X263074Y200361D01*
X263166Y200285D01*
X263253Y200204D01*
X263288Y200184D01*
X263319Y200159D01*
X263427Y200108D01*
X263531Y200050D01*
X263571Y200040D01*
X263607Y200023D01*
X263724Y200001D01*
X263839Y199971D01*
X263900Y199967D01*
X263920Y199963D01*
X263940Y199965D01*
X264000Y199961D01*
X299584Y199961D01*
X305653Y197447D01*
X310297Y192803D01*
X312811Y186734D01*
X312811Y180166D01*
X310297Y174097D01*
X305653Y169453D01*
X303161Y168421D01*
X303040Y168352D01*
X302918Y168287D01*
X302903Y168274D01*
X302885Y168263D01*
X302785Y168167D01*
X302682Y168073D01*
X302671Y168056D01*
X302657Y168042D01*
X302584Y167924D01*
X302508Y167807D01*
X302501Y167788D01*
X302490Y167771D01*
X302450Y167638D01*
X302404Y167507D01*
X302403Y167486D01*
X302397Y167467D01*
X302390Y167328D01*
X302379Y167190D01*
X302383Y167170D01*
X302382Y167149D01*
X302410Y167013D01*
X302434Y166876D01*
X302442Y166858D01*
X302446Y166838D01*
X302507Y166713D01*
X302564Y166586D01*
X302577Y166571D01*
X302586Y166552D01*
X302676Y166446D01*
X302763Y166338D01*
X302779Y166326D01*
X302792Y166310D01*
X302906Y166230D01*
X303017Y166147D01*
X303042Y166134D01*
X303052Y166127D01*
X303071Y166120D01*
X303161Y166076D01*
X303296Y166020D01*
X306770Y162546D01*
X308650Y158007D01*
X308650Y153093D01*
X306770Y148554D01*
X303296Y145080D01*
X298757Y143200D01*
X293843Y143200D01*
X289304Y145080D01*
X285830Y148554D01*
X283950Y153093D01*
X283950Y158007D01*
X285830Y162546D01*
X288057Y164773D01*
X288142Y164882D01*
X288231Y164989D01*
X288239Y165008D01*
X288252Y165024D01*
X288307Y165152D01*
X288366Y165277D01*
X288370Y165297D01*
X288378Y165316D01*
X288400Y165454D01*
X288426Y165590D01*
X288425Y165610D01*
X288428Y165630D01*
X288415Y165769D01*
X288406Y165907D01*
X288400Y165926D01*
X288398Y165946D01*
X288351Y166078D01*
X288308Y166209D01*
X288297Y166227D01*
X288290Y166246D01*
X288212Y166361D01*
X288138Y166478D01*
X288123Y166492D01*
X288112Y166509D01*
X288008Y166601D01*
X287906Y166696D01*
X287889Y166706D01*
X287873Y166719D01*
X287749Y166783D01*
X287628Y166850D01*
X287608Y166855D01*
X287590Y166864D01*
X287454Y166894D01*
X287320Y166929D01*
X287292Y166931D01*
X287280Y166934D01*
X287259Y166933D01*
X287159Y166939D01*
X265815Y166939D01*
X265717Y166927D01*
X265617Y166924D01*
X265559Y166907D01*
X265499Y166899D01*
X265407Y166863D01*
X265312Y166835D01*
X265260Y166805D01*
X265203Y166782D01*
X265123Y166724D01*
X265038Y166674D01*
X264963Y166608D01*
X264946Y166596D01*
X264938Y166586D01*
X264917Y166568D01*
X263103Y164753D01*
X263042Y164675D01*
X262974Y164602D01*
X262945Y164549D01*
X262908Y164502D01*
X262868Y164411D01*
X262820Y164324D01*
X262805Y164265D01*
X262781Y164210D01*
X262766Y164112D01*
X262741Y164016D01*
X262735Y163916D01*
X262731Y163896D01*
X262733Y163883D01*
X262731Y163855D01*
X262731Y11430D01*
X262746Y11312D01*
X262753Y11193D01*
X262766Y11155D01*
X262771Y11114D01*
X262814Y11004D01*
X262851Y10891D01*
X262873Y10856D01*
X262888Y10819D01*
X262958Y10723D01*
X263021Y10622D01*
X263051Y10594D01*
X263074Y10561D01*
X263166Y10485D01*
X263253Y10404D01*
X263288Y10384D01*
X263319Y10359D01*
X263427Y10308D01*
X263531Y10250D01*
X263571Y10240D01*
X263607Y10223D01*
X263724Y10201D01*
X263839Y10171D01*
X263900Y10167D01*
X263920Y10163D01*
X263940Y10165D01*
X264000Y10161D01*
X428570Y10161D01*
X428688Y10176D01*
G37*
G36*
X381485Y298732D02*
X381485Y298732D01*
X381493Y298731D01*
X381642Y298752D01*
X381792Y298771D01*
X381800Y298774D01*
X381808Y298775D01*
X381947Y298832D01*
X382088Y298888D01*
X382095Y298893D01*
X382103Y298896D01*
X382222Y298985D01*
X382345Y299074D01*
X382351Y299081D01*
X382357Y299086D01*
X382451Y299202D01*
X382548Y299319D01*
X382552Y299327D01*
X382557Y299334D01*
X382619Y299471D01*
X382684Y299607D01*
X382685Y299615D01*
X382689Y299623D01*
X382727Y299780D01*
X383579Y304616D01*
X388462Y313073D01*
X395942Y319349D01*
X405118Y322689D01*
X414882Y322689D01*
X424058Y319349D01*
X427754Y316248D01*
X427825Y316202D01*
X427889Y316149D01*
X427958Y316117D01*
X428021Y316076D01*
X428101Y316049D01*
X428177Y316013D01*
X428251Y315999D01*
X428323Y315975D01*
X428407Y315969D01*
X428490Y315954D01*
X428565Y315958D01*
X428640Y315953D01*
X428723Y315968D01*
X428807Y315973D01*
X428879Y315997D01*
X428953Y316010D01*
X429030Y316045D01*
X429109Y316071D01*
X429173Y316112D01*
X429242Y316143D01*
X429307Y316197D01*
X429378Y316241D01*
X429430Y316297D01*
X429489Y316344D01*
X429538Y316412D01*
X429596Y316473D01*
X429633Y316539D01*
X429678Y316600D01*
X429709Y316678D01*
X429750Y316752D01*
X429768Y316825D01*
X429797Y316895D01*
X429808Y316978D01*
X429829Y317060D01*
X429838Y317202D01*
X429839Y317210D01*
X429839Y317213D01*
X429839Y317220D01*
X429839Y538570D01*
X429824Y538688D01*
X429817Y538807D01*
X429804Y538845D01*
X429799Y538886D01*
X429756Y538996D01*
X429719Y539109D01*
X429697Y539144D01*
X429682Y539181D01*
X429613Y539277D01*
X429549Y539378D01*
X429519Y539406D01*
X429496Y539439D01*
X429404Y539515D01*
X429317Y539596D01*
X429282Y539616D01*
X429251Y539641D01*
X429143Y539692D01*
X429039Y539750D01*
X428999Y539760D01*
X428963Y539777D01*
X428846Y539799D01*
X428731Y539829D01*
X428671Y539833D01*
X428651Y539837D01*
X428630Y539835D01*
X428570Y539839D01*
X359000Y539839D01*
X358882Y539824D01*
X358763Y539817D01*
X358725Y539804D01*
X358684Y539799D01*
X358574Y539756D01*
X358461Y539719D01*
X358426Y539697D01*
X358389Y539682D01*
X358293Y539613D01*
X358192Y539549D01*
X358164Y539519D01*
X358131Y539496D01*
X358056Y539404D01*
X357974Y539317D01*
X357954Y539282D01*
X357929Y539251D01*
X357878Y539143D01*
X357820Y539039D01*
X357810Y538999D01*
X357793Y538963D01*
X357771Y538846D01*
X357741Y538731D01*
X357737Y538671D01*
X357733Y538651D01*
X357735Y538630D01*
X357731Y538570D01*
X357731Y474526D01*
X307103Y423898D01*
X307042Y423819D01*
X306974Y423747D01*
X306945Y423694D01*
X306908Y423646D01*
X306868Y423555D01*
X306820Y423469D01*
X306805Y423410D01*
X306781Y423354D01*
X306766Y423256D01*
X306741Y423161D01*
X306735Y423061D01*
X306731Y423040D01*
X306733Y423028D01*
X306731Y423000D01*
X306731Y300000D01*
X306746Y299882D01*
X306753Y299763D01*
X306766Y299725D01*
X306771Y299684D01*
X306814Y299574D01*
X306851Y299461D01*
X306873Y299426D01*
X306888Y299389D01*
X306958Y299293D01*
X307021Y299192D01*
X307051Y299164D01*
X307074Y299131D01*
X307166Y299056D01*
X307253Y298974D01*
X307288Y298954D01*
X307319Y298929D01*
X307427Y298878D01*
X307531Y298820D01*
X307571Y298810D01*
X307607Y298793D01*
X307724Y298771D01*
X307839Y298741D01*
X307900Y298737D01*
X307920Y298733D01*
X307940Y298735D01*
X308000Y298731D01*
X381477Y298731D01*
X381485Y298732D01*
G37*
G36*
X247118Y298746D02*
X247118Y298746D01*
X247237Y298753D01*
X247275Y298766D01*
X247316Y298771D01*
X247426Y298814D01*
X247539Y298851D01*
X247574Y298873D01*
X247611Y298888D01*
X247707Y298958D01*
X247808Y299021D01*
X247836Y299051D01*
X247869Y299074D01*
X247945Y299166D01*
X248026Y299253D01*
X248046Y299288D01*
X248071Y299319D01*
X248122Y299427D01*
X248180Y299531D01*
X248190Y299571D01*
X248207Y299607D01*
X248229Y299724D01*
X248259Y299839D01*
X248263Y299900D01*
X248267Y299920D01*
X248265Y299940D01*
X248269Y300000D01*
X248269Y444000D01*
X248257Y444098D01*
X248254Y444197D01*
X248237Y444255D01*
X248229Y444316D01*
X248193Y444408D01*
X248165Y444503D01*
X248135Y444555D01*
X248112Y444611D01*
X248054Y444691D01*
X248004Y444777D01*
X247938Y444852D01*
X247926Y444869D01*
X247916Y444876D01*
X247898Y444898D01*
X236898Y455898D01*
X236819Y455958D01*
X236747Y456026D01*
X236694Y456055D01*
X236646Y456092D01*
X236555Y456132D01*
X236469Y456180D01*
X236410Y456195D01*
X236354Y456219D01*
X236256Y456234D01*
X236161Y456259D01*
X236061Y456265D01*
X236040Y456269D01*
X236028Y456267D01*
X236000Y456269D01*
X220000Y456269D01*
X219902Y456257D01*
X219803Y456254D01*
X219745Y456237D01*
X219684Y456229D01*
X219592Y456193D01*
X219497Y456165D01*
X219445Y456135D01*
X219389Y456112D01*
X219309Y456054D01*
X219223Y456004D01*
X219148Y455938D01*
X219131Y455926D01*
X219124Y455916D01*
X219103Y455898D01*
X179103Y415898D01*
X179042Y415819D01*
X178974Y415747D01*
X178945Y415694D01*
X178908Y415646D01*
X178868Y415555D01*
X178820Y415469D01*
X178805Y415410D01*
X178781Y415354D01*
X178766Y415256D01*
X178741Y415161D01*
X178735Y415061D01*
X178731Y415040D01*
X178733Y415028D01*
X178731Y415000D01*
X178731Y390526D01*
X164474Y376269D01*
X55000Y376269D01*
X54882Y376254D01*
X54763Y376247D01*
X54725Y376234D01*
X54684Y376229D01*
X54574Y376186D01*
X54461Y376149D01*
X54426Y376127D01*
X54389Y376112D01*
X54293Y376043D01*
X54192Y375979D01*
X54164Y375949D01*
X54131Y375926D01*
X54056Y375834D01*
X53974Y375747D01*
X53954Y375712D01*
X53929Y375681D01*
X53878Y375573D01*
X53820Y375469D01*
X53810Y375429D01*
X53793Y375393D01*
X53771Y375276D01*
X53741Y375161D01*
X53737Y375101D01*
X53733Y375081D01*
X53735Y375060D01*
X53731Y375000D01*
X53731Y300000D01*
X53746Y299882D01*
X53753Y299763D01*
X53766Y299725D01*
X53771Y299684D01*
X53814Y299574D01*
X53851Y299461D01*
X53873Y299426D01*
X53888Y299389D01*
X53958Y299293D01*
X54021Y299192D01*
X54051Y299164D01*
X54074Y299131D01*
X54166Y299056D01*
X54253Y298974D01*
X54288Y298954D01*
X54319Y298929D01*
X54427Y298878D01*
X54531Y298820D01*
X54571Y298810D01*
X54607Y298793D01*
X54724Y298771D01*
X54839Y298741D01*
X54900Y298737D01*
X54920Y298733D01*
X54940Y298735D01*
X55000Y298731D01*
X247000Y298731D01*
X247118Y298746D01*
G37*
%LPC*%
G36*
X331222Y88937D02*
X331222Y88937D01*
X326274Y90987D01*
X322487Y94774D01*
X320437Y99722D01*
X320437Y105078D01*
X322487Y110026D01*
X326274Y113813D01*
X331222Y115863D01*
X336578Y115863D01*
X341526Y113813D01*
X345313Y110026D01*
X347363Y105078D01*
X347363Y99722D01*
X345313Y94774D01*
X341526Y90987D01*
X336578Y88937D01*
X331222Y88937D01*
G37*
%LPD*%
%LPC*%
G36*
X374636Y184269D02*
X374636Y184269D01*
X370453Y186002D01*
X367252Y189203D01*
X365519Y193386D01*
X365519Y197914D01*
X367252Y202097D01*
X370453Y205298D01*
X374636Y207031D01*
X379164Y207031D01*
X383347Y205298D01*
X386548Y202097D01*
X388281Y197914D01*
X388281Y193386D01*
X386548Y189203D01*
X383347Y186002D01*
X379164Y184269D01*
X374636Y184269D01*
G37*
%LPD*%
%LPC*%
G36*
X374636Y111869D02*
X374636Y111869D01*
X370453Y113602D01*
X367252Y116803D01*
X365519Y120986D01*
X365519Y125514D01*
X367252Y129697D01*
X370453Y132898D01*
X374636Y134631D01*
X379164Y134631D01*
X383347Y132898D01*
X386548Y129697D01*
X388281Y125514D01*
X388281Y120986D01*
X386548Y116803D01*
X383347Y113602D01*
X379164Y111869D01*
X374636Y111869D01*
G37*
%LPD*%
%LPC*%
G36*
X364636Y88369D02*
X364636Y88369D01*
X360453Y90102D01*
X357252Y93303D01*
X355519Y97486D01*
X355519Y102014D01*
X357252Y106197D01*
X360453Y109398D01*
X364636Y111131D01*
X369164Y111131D01*
X373347Y109398D01*
X376548Y106197D01*
X378281Y102014D01*
X378281Y97486D01*
X376548Y93303D01*
X373347Y90102D01*
X369164Y88369D01*
X364636Y88369D01*
G37*
%LPD*%
%LPC*%
G36*
X303448Y41979D02*
X303448Y41979D01*
X299471Y43627D01*
X296427Y46671D01*
X294779Y50648D01*
X294779Y54952D01*
X296427Y58929D01*
X299471Y61973D01*
X303448Y63621D01*
X307752Y63621D01*
X311729Y61973D01*
X314773Y58929D01*
X316421Y54952D01*
X316421Y50648D01*
X314773Y46671D01*
X311729Y43627D01*
X307752Y41979D01*
X303448Y41979D01*
G37*
%LPD*%
D10*
X54000Y133900D03*
X155600Y133900D03*
X333900Y204000D03*
X333900Y102400D03*
D11*
X305600Y52800D03*
X280600Y52800D03*
D12*
X194700Y183450D03*
X194700Y155550D03*
X296300Y155550D03*
X296300Y183450D03*
D13*
X330600Y502500D03*
X381400Y502500D03*
D14*
X154300Y33250D03*
X154300Y105650D03*
X218100Y33250D03*
X218100Y105650D03*
X376900Y195650D03*
X376900Y123250D03*
X366900Y99750D03*
X366900Y27350D03*
X69300Y181900D03*
X141700Y181900D03*
D15*
X96520Y34100D02*
X81280Y34100D01*
X81280Y59500D02*
X96520Y59500D01*
X96520Y84900D02*
X81280Y84900D01*
D16*
X58900Y525100D03*
D17*
X58900Y431100D03*
X117400Y404100D03*
D18*
X332100Y238000D03*
X112100Y238000D03*
D19*
X350100Y358000D03*
X74100Y358000D03*
D20*
X177000Y437950D02*
X177000Y455450D01*
X272000Y484950D02*
X272000Y502450D01*
X272000Y455450D02*
X272000Y437950D01*
D21*
X232500Y488700D02*
X216500Y488700D01*
D22*
X224500Y428700D03*
D20*
X177000Y484950D02*
X177000Y502450D01*
D19*
X224500Y521200D03*
D23*
X85000Y499000D02*
X58900Y525100D01*
X85000Y499000D02*
X85000Y480000D01*
D24*
X85000Y480000D03*
D23*
X41430Y209770D02*
X69300Y181900D01*
X41430Y413630D02*
X58900Y431100D01*
X41430Y413630D02*
X41430Y209770D01*
D25*
X177000Y446700D02*
X177000Y493700D01*
X333900Y236200D02*
X333900Y204000D01*
X333900Y236200D02*
X332100Y238000D01*
X333900Y204000D02*
X333900Y148900D01*
X285000Y100000D01*
X285000Y57200D01*
X280600Y52800D01*
X280600Y49400D01*
X305000Y25000D01*
X364550Y25000D01*
X366900Y27350D01*
D24*
X180000Y530000D03*
X265000Y530000D03*
X330000Y530000D03*
D25*
X180650Y105650D02*
X154300Y105650D01*
X258450Y183450D02*
X296300Y183450D01*
X258450Y183450D02*
X180650Y105650D01*
X107500Y59500D02*
X88900Y59500D01*
X107500Y59500D02*
X121000Y73000D01*
X121000Y99000D01*
X105000Y115000D01*
X105000Y200000D01*
X70000Y235000D01*
X70000Y353900D01*
X74100Y358000D01*
D24*
X230000Y370000D03*
X190000Y370000D03*
X230000Y325000D03*
X190000Y325000D03*
X150000Y355000D03*
X150000Y325000D03*
X110000Y355000D03*
X110000Y325000D03*
X380000Y455000D03*
X380000Y410000D03*
X380000Y365000D03*
X380000Y320000D03*
X340000Y320000D03*
X340000Y410000D03*
X380000Y530000D03*
X415000Y530000D03*
X415000Y455000D03*
X415000Y410000D03*
X415000Y365000D03*
M02*
