G04 EAGLE Gerber RS-274X export*
G75*
%MOMM*%
%FSLAX34Y34*%
%LPD*%
%IN*%
%IPPOS*%
%AMOC8*
5,1,8,0,0,1.08239X$1,22.5*%
G01*
%ADD10C,0.000000*%
%ADD11C,0.254000*%


D10*
X0Y0D02*
X440000Y0D01*
X440000Y550000D01*
X0Y550000D01*
X0Y0D01*
X101400Y514100D02*
X101403Y514309D01*
X101410Y514517D01*
X101423Y514725D01*
X101441Y514933D01*
X101464Y515140D01*
X101492Y515347D01*
X101525Y515553D01*
X101563Y515758D01*
X101607Y515962D01*
X101655Y516165D01*
X101708Y516367D01*
X101766Y516567D01*
X101829Y516766D01*
X101897Y516964D01*
X101970Y517159D01*
X102047Y517353D01*
X102129Y517545D01*
X102216Y517734D01*
X102308Y517922D01*
X102404Y518107D01*
X102504Y518290D01*
X102609Y518470D01*
X102719Y518647D01*
X102833Y518822D01*
X102951Y518994D01*
X103073Y519163D01*
X103199Y519329D01*
X103329Y519492D01*
X103464Y519652D01*
X103602Y519808D01*
X103744Y519961D01*
X103890Y520110D01*
X104039Y520256D01*
X104192Y520398D01*
X104348Y520536D01*
X104508Y520671D01*
X104671Y520801D01*
X104837Y520927D01*
X105006Y521049D01*
X105178Y521167D01*
X105353Y521281D01*
X105530Y521391D01*
X105710Y521496D01*
X105893Y521596D01*
X106078Y521692D01*
X106266Y521784D01*
X106455Y521871D01*
X106647Y521953D01*
X106841Y522030D01*
X107036Y522103D01*
X107234Y522171D01*
X107433Y522234D01*
X107633Y522292D01*
X107835Y522345D01*
X108038Y522393D01*
X108242Y522437D01*
X108447Y522475D01*
X108653Y522508D01*
X108860Y522536D01*
X109067Y522559D01*
X109275Y522577D01*
X109483Y522590D01*
X109691Y522597D01*
X109900Y522600D01*
X110109Y522597D01*
X110317Y522590D01*
X110525Y522577D01*
X110733Y522559D01*
X110940Y522536D01*
X111147Y522508D01*
X111353Y522475D01*
X111558Y522437D01*
X111762Y522393D01*
X111965Y522345D01*
X112167Y522292D01*
X112367Y522234D01*
X112566Y522171D01*
X112764Y522103D01*
X112959Y522030D01*
X113153Y521953D01*
X113345Y521871D01*
X113534Y521784D01*
X113722Y521692D01*
X113907Y521596D01*
X114090Y521496D01*
X114270Y521391D01*
X114447Y521281D01*
X114622Y521167D01*
X114794Y521049D01*
X114963Y520927D01*
X115129Y520801D01*
X115292Y520671D01*
X115452Y520536D01*
X115608Y520398D01*
X115761Y520256D01*
X115910Y520110D01*
X116056Y519961D01*
X116198Y519808D01*
X116336Y519652D01*
X116471Y519492D01*
X116601Y519329D01*
X116727Y519163D01*
X116849Y518994D01*
X116967Y518822D01*
X117081Y518647D01*
X117191Y518470D01*
X117296Y518290D01*
X117396Y518107D01*
X117492Y517922D01*
X117584Y517734D01*
X117671Y517545D01*
X117753Y517353D01*
X117830Y517159D01*
X117903Y516964D01*
X117971Y516766D01*
X118034Y516567D01*
X118092Y516367D01*
X118145Y516165D01*
X118193Y515962D01*
X118237Y515758D01*
X118275Y515553D01*
X118308Y515347D01*
X118336Y515140D01*
X118359Y514933D01*
X118377Y514725D01*
X118390Y514517D01*
X118397Y514309D01*
X118400Y514100D01*
X118397Y513891D01*
X118390Y513683D01*
X118377Y513475D01*
X118359Y513267D01*
X118336Y513060D01*
X118308Y512853D01*
X118275Y512647D01*
X118237Y512442D01*
X118193Y512238D01*
X118145Y512035D01*
X118092Y511833D01*
X118034Y511633D01*
X117971Y511434D01*
X117903Y511236D01*
X117830Y511041D01*
X117753Y510847D01*
X117671Y510655D01*
X117584Y510466D01*
X117492Y510278D01*
X117396Y510093D01*
X117296Y509910D01*
X117191Y509730D01*
X117081Y509553D01*
X116967Y509378D01*
X116849Y509206D01*
X116727Y509037D01*
X116601Y508871D01*
X116471Y508708D01*
X116336Y508548D01*
X116198Y508392D01*
X116056Y508239D01*
X115910Y508090D01*
X115761Y507944D01*
X115608Y507802D01*
X115452Y507664D01*
X115292Y507529D01*
X115129Y507399D01*
X114963Y507273D01*
X114794Y507151D01*
X114622Y507033D01*
X114447Y506919D01*
X114270Y506809D01*
X114090Y506704D01*
X113907Y506604D01*
X113722Y506508D01*
X113534Y506416D01*
X113345Y506329D01*
X113153Y506247D01*
X112959Y506170D01*
X112764Y506097D01*
X112566Y506029D01*
X112367Y505966D01*
X112167Y505908D01*
X111965Y505855D01*
X111762Y505807D01*
X111558Y505763D01*
X111353Y505725D01*
X111147Y505692D01*
X110940Y505664D01*
X110733Y505641D01*
X110525Y505623D01*
X110317Y505610D01*
X110109Y505603D01*
X109900Y505600D01*
X109691Y505603D01*
X109483Y505610D01*
X109275Y505623D01*
X109067Y505641D01*
X108860Y505664D01*
X108653Y505692D01*
X108447Y505725D01*
X108242Y505763D01*
X108038Y505807D01*
X107835Y505855D01*
X107633Y505908D01*
X107433Y505966D01*
X107234Y506029D01*
X107036Y506097D01*
X106841Y506170D01*
X106647Y506247D01*
X106455Y506329D01*
X106266Y506416D01*
X106078Y506508D01*
X105893Y506604D01*
X105710Y506704D01*
X105530Y506809D01*
X105353Y506919D01*
X105178Y507033D01*
X105006Y507151D01*
X104837Y507273D01*
X104671Y507399D01*
X104508Y507529D01*
X104348Y507664D01*
X104192Y507802D01*
X104039Y507944D01*
X103890Y508090D01*
X103744Y508239D01*
X103602Y508392D01*
X103464Y508548D01*
X103329Y508708D01*
X103199Y508871D01*
X103073Y509037D01*
X102951Y509206D01*
X102833Y509378D01*
X102719Y509553D01*
X102609Y509730D01*
X102504Y509910D01*
X102404Y510093D01*
X102308Y510278D01*
X102216Y510466D01*
X102129Y510655D01*
X102047Y510847D01*
X101970Y511041D01*
X101897Y511236D01*
X101829Y511434D01*
X101766Y511633D01*
X101708Y511833D01*
X101655Y512035D01*
X101607Y512238D01*
X101563Y512442D01*
X101525Y512647D01*
X101492Y512853D01*
X101464Y513060D01*
X101441Y513267D01*
X101423Y513475D01*
X101410Y513683D01*
X101403Y513891D01*
X101400Y514100D01*
X101400Y444100D02*
X101403Y444309D01*
X101410Y444517D01*
X101423Y444725D01*
X101441Y444933D01*
X101464Y445140D01*
X101492Y445347D01*
X101525Y445553D01*
X101563Y445758D01*
X101607Y445962D01*
X101655Y446165D01*
X101708Y446367D01*
X101766Y446567D01*
X101829Y446766D01*
X101897Y446964D01*
X101970Y447159D01*
X102047Y447353D01*
X102129Y447545D01*
X102216Y447734D01*
X102308Y447922D01*
X102404Y448107D01*
X102504Y448290D01*
X102609Y448470D01*
X102719Y448647D01*
X102833Y448822D01*
X102951Y448994D01*
X103073Y449163D01*
X103199Y449329D01*
X103329Y449492D01*
X103464Y449652D01*
X103602Y449808D01*
X103744Y449961D01*
X103890Y450110D01*
X104039Y450256D01*
X104192Y450398D01*
X104348Y450536D01*
X104508Y450671D01*
X104671Y450801D01*
X104837Y450927D01*
X105006Y451049D01*
X105178Y451167D01*
X105353Y451281D01*
X105530Y451391D01*
X105710Y451496D01*
X105893Y451596D01*
X106078Y451692D01*
X106266Y451784D01*
X106455Y451871D01*
X106647Y451953D01*
X106841Y452030D01*
X107036Y452103D01*
X107234Y452171D01*
X107433Y452234D01*
X107633Y452292D01*
X107835Y452345D01*
X108038Y452393D01*
X108242Y452437D01*
X108447Y452475D01*
X108653Y452508D01*
X108860Y452536D01*
X109067Y452559D01*
X109275Y452577D01*
X109483Y452590D01*
X109691Y452597D01*
X109900Y452600D01*
X110109Y452597D01*
X110317Y452590D01*
X110525Y452577D01*
X110733Y452559D01*
X110940Y452536D01*
X111147Y452508D01*
X111353Y452475D01*
X111558Y452437D01*
X111762Y452393D01*
X111965Y452345D01*
X112167Y452292D01*
X112367Y452234D01*
X112566Y452171D01*
X112764Y452103D01*
X112959Y452030D01*
X113153Y451953D01*
X113345Y451871D01*
X113534Y451784D01*
X113722Y451692D01*
X113907Y451596D01*
X114090Y451496D01*
X114270Y451391D01*
X114447Y451281D01*
X114622Y451167D01*
X114794Y451049D01*
X114963Y450927D01*
X115129Y450801D01*
X115292Y450671D01*
X115452Y450536D01*
X115608Y450398D01*
X115761Y450256D01*
X115910Y450110D01*
X116056Y449961D01*
X116198Y449808D01*
X116336Y449652D01*
X116471Y449492D01*
X116601Y449329D01*
X116727Y449163D01*
X116849Y448994D01*
X116967Y448822D01*
X117081Y448647D01*
X117191Y448470D01*
X117296Y448290D01*
X117396Y448107D01*
X117492Y447922D01*
X117584Y447734D01*
X117671Y447545D01*
X117753Y447353D01*
X117830Y447159D01*
X117903Y446964D01*
X117971Y446766D01*
X118034Y446567D01*
X118092Y446367D01*
X118145Y446165D01*
X118193Y445962D01*
X118237Y445758D01*
X118275Y445553D01*
X118308Y445347D01*
X118336Y445140D01*
X118359Y444933D01*
X118377Y444725D01*
X118390Y444517D01*
X118397Y444309D01*
X118400Y444100D01*
X118397Y443891D01*
X118390Y443683D01*
X118377Y443475D01*
X118359Y443267D01*
X118336Y443060D01*
X118308Y442853D01*
X118275Y442647D01*
X118237Y442442D01*
X118193Y442238D01*
X118145Y442035D01*
X118092Y441833D01*
X118034Y441633D01*
X117971Y441434D01*
X117903Y441236D01*
X117830Y441041D01*
X117753Y440847D01*
X117671Y440655D01*
X117584Y440466D01*
X117492Y440278D01*
X117396Y440093D01*
X117296Y439910D01*
X117191Y439730D01*
X117081Y439553D01*
X116967Y439378D01*
X116849Y439206D01*
X116727Y439037D01*
X116601Y438871D01*
X116471Y438708D01*
X116336Y438548D01*
X116198Y438392D01*
X116056Y438239D01*
X115910Y438090D01*
X115761Y437944D01*
X115608Y437802D01*
X115452Y437664D01*
X115292Y437529D01*
X115129Y437399D01*
X114963Y437273D01*
X114794Y437151D01*
X114622Y437033D01*
X114447Y436919D01*
X114270Y436809D01*
X114090Y436704D01*
X113907Y436604D01*
X113722Y436508D01*
X113534Y436416D01*
X113345Y436329D01*
X113153Y436247D01*
X112959Y436170D01*
X112764Y436097D01*
X112566Y436029D01*
X112367Y435966D01*
X112167Y435908D01*
X111965Y435855D01*
X111762Y435807D01*
X111558Y435763D01*
X111353Y435725D01*
X111147Y435692D01*
X110940Y435664D01*
X110733Y435641D01*
X110525Y435623D01*
X110317Y435610D01*
X110109Y435603D01*
X109900Y435600D01*
X109691Y435603D01*
X109483Y435610D01*
X109275Y435623D01*
X109067Y435641D01*
X108860Y435664D01*
X108653Y435692D01*
X108447Y435725D01*
X108242Y435763D01*
X108038Y435807D01*
X107835Y435855D01*
X107633Y435908D01*
X107433Y435966D01*
X107234Y436029D01*
X107036Y436097D01*
X106841Y436170D01*
X106647Y436247D01*
X106455Y436329D01*
X106266Y436416D01*
X106078Y436508D01*
X105893Y436604D01*
X105710Y436704D01*
X105530Y436809D01*
X105353Y436919D01*
X105178Y437033D01*
X105006Y437151D01*
X104837Y437273D01*
X104671Y437399D01*
X104508Y437529D01*
X104348Y437664D01*
X104192Y437802D01*
X104039Y437944D01*
X103890Y438090D01*
X103744Y438239D01*
X103602Y438392D01*
X103464Y438548D01*
X103329Y438708D01*
X103199Y438871D01*
X103073Y439037D01*
X102951Y439206D01*
X102833Y439378D01*
X102719Y439553D01*
X102609Y439730D01*
X102504Y439910D01*
X102404Y440093D01*
X102308Y440278D01*
X102216Y440466D01*
X102129Y440655D01*
X102047Y440847D01*
X101970Y441041D01*
X101897Y441236D01*
X101829Y441434D01*
X101766Y441633D01*
X101708Y441833D01*
X101655Y442035D01*
X101607Y442238D01*
X101563Y442442D01*
X101525Y442647D01*
X101492Y442853D01*
X101464Y443060D01*
X101441Y443267D01*
X101423Y443475D01*
X101410Y443683D01*
X101403Y443891D01*
X101400Y444100D01*
X172000Y456700D02*
X182000Y456700D01*
X172000Y456700D02*
X172000Y436700D01*
X182000Y436700D01*
X182000Y456700D01*
X182000Y503700D02*
X172000Y503700D01*
X172000Y483700D01*
X182000Y483700D01*
X182000Y503700D01*
X267000Y503700D02*
X277000Y503700D01*
X267000Y503700D02*
X267000Y483700D01*
X277000Y483700D01*
X277000Y503700D01*
X277000Y456700D02*
X267000Y456700D01*
X267000Y436700D01*
X277000Y436700D01*
X277000Y456700D01*
X235000Y492700D02*
X214000Y492700D01*
X214000Y484700D01*
X235000Y484700D01*
X235000Y492700D01*
X24500Y35000D02*
X24503Y35258D01*
X24513Y35515D01*
X24528Y35772D01*
X24551Y36029D01*
X24579Y36285D01*
X24614Y36541D01*
X24655Y36795D01*
X24702Y37048D01*
X24755Y37301D01*
X24815Y37551D01*
X24880Y37800D01*
X24952Y38048D01*
X25030Y38294D01*
X25114Y38537D01*
X25204Y38779D01*
X25299Y39018D01*
X25401Y39255D01*
X25508Y39489D01*
X25621Y39721D01*
X25740Y39950D01*
X25864Y40175D01*
X25994Y40398D01*
X26129Y40617D01*
X26270Y40833D01*
X26415Y41046D01*
X26566Y41255D01*
X26722Y41460D01*
X26883Y41661D01*
X27049Y41858D01*
X27220Y42051D01*
X27395Y42240D01*
X27575Y42425D01*
X27760Y42605D01*
X27949Y42780D01*
X28142Y42951D01*
X28339Y43117D01*
X28540Y43278D01*
X28745Y43434D01*
X28954Y43585D01*
X29167Y43730D01*
X29383Y43871D01*
X29602Y44006D01*
X29825Y44136D01*
X30050Y44260D01*
X30279Y44379D01*
X30511Y44492D01*
X30745Y44599D01*
X30982Y44701D01*
X31221Y44796D01*
X31463Y44886D01*
X31706Y44970D01*
X31952Y45048D01*
X32200Y45120D01*
X32449Y45185D01*
X32699Y45245D01*
X32952Y45298D01*
X33205Y45345D01*
X33459Y45386D01*
X33715Y45421D01*
X33971Y45449D01*
X34228Y45472D01*
X34485Y45487D01*
X34742Y45497D01*
X35000Y45500D01*
X35258Y45497D01*
X35515Y45487D01*
X35772Y45472D01*
X36029Y45449D01*
X36285Y45421D01*
X36541Y45386D01*
X36795Y45345D01*
X37048Y45298D01*
X37301Y45245D01*
X37551Y45185D01*
X37800Y45120D01*
X38048Y45048D01*
X38294Y44970D01*
X38537Y44886D01*
X38779Y44796D01*
X39018Y44701D01*
X39255Y44599D01*
X39489Y44492D01*
X39721Y44379D01*
X39950Y44260D01*
X40175Y44136D01*
X40398Y44006D01*
X40617Y43871D01*
X40833Y43730D01*
X41046Y43585D01*
X41255Y43434D01*
X41460Y43278D01*
X41661Y43117D01*
X41858Y42951D01*
X42051Y42780D01*
X42240Y42605D01*
X42425Y42425D01*
X42605Y42240D01*
X42780Y42051D01*
X42951Y41858D01*
X43117Y41661D01*
X43278Y41460D01*
X43434Y41255D01*
X43585Y41046D01*
X43730Y40833D01*
X43871Y40617D01*
X44006Y40398D01*
X44136Y40175D01*
X44260Y39950D01*
X44379Y39721D01*
X44492Y39489D01*
X44599Y39255D01*
X44701Y39018D01*
X44796Y38779D01*
X44886Y38537D01*
X44970Y38294D01*
X45048Y38048D01*
X45120Y37800D01*
X45185Y37551D01*
X45245Y37301D01*
X45298Y37048D01*
X45345Y36795D01*
X45386Y36541D01*
X45421Y36285D01*
X45449Y36029D01*
X45472Y35772D01*
X45487Y35515D01*
X45497Y35258D01*
X45500Y35000D01*
X45497Y34742D01*
X45487Y34485D01*
X45472Y34228D01*
X45449Y33971D01*
X45421Y33715D01*
X45386Y33459D01*
X45345Y33205D01*
X45298Y32952D01*
X45245Y32699D01*
X45185Y32449D01*
X45120Y32200D01*
X45048Y31952D01*
X44970Y31706D01*
X44886Y31463D01*
X44796Y31221D01*
X44701Y30982D01*
X44599Y30745D01*
X44492Y30511D01*
X44379Y30279D01*
X44260Y30050D01*
X44136Y29825D01*
X44006Y29602D01*
X43871Y29383D01*
X43730Y29167D01*
X43585Y28954D01*
X43434Y28745D01*
X43278Y28540D01*
X43117Y28339D01*
X42951Y28142D01*
X42780Y27949D01*
X42605Y27760D01*
X42425Y27575D01*
X42240Y27395D01*
X42051Y27220D01*
X41858Y27049D01*
X41661Y26883D01*
X41460Y26722D01*
X41255Y26566D01*
X41046Y26415D01*
X40833Y26270D01*
X40617Y26129D01*
X40398Y25994D01*
X40175Y25864D01*
X39950Y25740D01*
X39721Y25621D01*
X39489Y25508D01*
X39255Y25401D01*
X39018Y25299D01*
X38779Y25204D01*
X38537Y25114D01*
X38294Y25030D01*
X38048Y24952D01*
X37800Y24880D01*
X37551Y24815D01*
X37301Y24755D01*
X37048Y24702D01*
X36795Y24655D01*
X36541Y24614D01*
X36285Y24579D01*
X36029Y24551D01*
X35772Y24528D01*
X35515Y24513D01*
X35258Y24503D01*
X35000Y24500D01*
X34742Y24503D01*
X34485Y24513D01*
X34228Y24528D01*
X33971Y24551D01*
X33715Y24579D01*
X33459Y24614D01*
X33205Y24655D01*
X32952Y24702D01*
X32699Y24755D01*
X32449Y24815D01*
X32200Y24880D01*
X31952Y24952D01*
X31706Y25030D01*
X31463Y25114D01*
X31221Y25204D01*
X30982Y25299D01*
X30745Y25401D01*
X30511Y25508D01*
X30279Y25621D01*
X30050Y25740D01*
X29825Y25864D01*
X29602Y25994D01*
X29383Y26129D01*
X29167Y26270D01*
X28954Y26415D01*
X28745Y26566D01*
X28540Y26722D01*
X28339Y26883D01*
X28142Y27049D01*
X27949Y27220D01*
X27760Y27395D01*
X27575Y27575D01*
X27395Y27760D01*
X27220Y27949D01*
X27049Y28142D01*
X26883Y28339D01*
X26722Y28540D01*
X26566Y28745D01*
X26415Y28954D01*
X26270Y29167D01*
X26129Y29383D01*
X25994Y29602D01*
X25864Y29825D01*
X25740Y30050D01*
X25621Y30279D01*
X25508Y30511D01*
X25401Y30745D01*
X25299Y30982D01*
X25204Y31221D01*
X25114Y31463D01*
X25030Y31706D01*
X24952Y31952D01*
X24880Y32200D01*
X24815Y32449D01*
X24755Y32699D01*
X24702Y32952D01*
X24655Y33205D01*
X24614Y33459D01*
X24579Y33715D01*
X24551Y33971D01*
X24528Y34228D01*
X24513Y34485D01*
X24503Y34742D01*
X24500Y35000D01*
X399500Y60000D02*
X399503Y60258D01*
X399513Y60515D01*
X399528Y60772D01*
X399551Y61029D01*
X399579Y61285D01*
X399614Y61541D01*
X399655Y61795D01*
X399702Y62048D01*
X399755Y62301D01*
X399815Y62551D01*
X399880Y62800D01*
X399952Y63048D01*
X400030Y63294D01*
X400114Y63537D01*
X400204Y63779D01*
X400299Y64018D01*
X400401Y64255D01*
X400508Y64489D01*
X400621Y64721D01*
X400740Y64950D01*
X400864Y65175D01*
X400994Y65398D01*
X401129Y65617D01*
X401270Y65833D01*
X401415Y66046D01*
X401566Y66255D01*
X401722Y66460D01*
X401883Y66661D01*
X402049Y66858D01*
X402220Y67051D01*
X402395Y67240D01*
X402575Y67425D01*
X402760Y67605D01*
X402949Y67780D01*
X403142Y67951D01*
X403339Y68117D01*
X403540Y68278D01*
X403745Y68434D01*
X403954Y68585D01*
X404167Y68730D01*
X404383Y68871D01*
X404602Y69006D01*
X404825Y69136D01*
X405050Y69260D01*
X405279Y69379D01*
X405511Y69492D01*
X405745Y69599D01*
X405982Y69701D01*
X406221Y69796D01*
X406463Y69886D01*
X406706Y69970D01*
X406952Y70048D01*
X407200Y70120D01*
X407449Y70185D01*
X407699Y70245D01*
X407952Y70298D01*
X408205Y70345D01*
X408459Y70386D01*
X408715Y70421D01*
X408971Y70449D01*
X409228Y70472D01*
X409485Y70487D01*
X409742Y70497D01*
X410000Y70500D01*
X410258Y70497D01*
X410515Y70487D01*
X410772Y70472D01*
X411029Y70449D01*
X411285Y70421D01*
X411541Y70386D01*
X411795Y70345D01*
X412048Y70298D01*
X412301Y70245D01*
X412551Y70185D01*
X412800Y70120D01*
X413048Y70048D01*
X413294Y69970D01*
X413537Y69886D01*
X413779Y69796D01*
X414018Y69701D01*
X414255Y69599D01*
X414489Y69492D01*
X414721Y69379D01*
X414950Y69260D01*
X415175Y69136D01*
X415398Y69006D01*
X415617Y68871D01*
X415833Y68730D01*
X416046Y68585D01*
X416255Y68434D01*
X416460Y68278D01*
X416661Y68117D01*
X416858Y67951D01*
X417051Y67780D01*
X417240Y67605D01*
X417425Y67425D01*
X417605Y67240D01*
X417780Y67051D01*
X417951Y66858D01*
X418117Y66661D01*
X418278Y66460D01*
X418434Y66255D01*
X418585Y66046D01*
X418730Y65833D01*
X418871Y65617D01*
X419006Y65398D01*
X419136Y65175D01*
X419260Y64950D01*
X419379Y64721D01*
X419492Y64489D01*
X419599Y64255D01*
X419701Y64018D01*
X419796Y63779D01*
X419886Y63537D01*
X419970Y63294D01*
X420048Y63048D01*
X420120Y62800D01*
X420185Y62551D01*
X420245Y62301D01*
X420298Y62048D01*
X420345Y61795D01*
X420386Y61541D01*
X420421Y61285D01*
X420449Y61029D01*
X420472Y60772D01*
X420487Y60515D01*
X420497Y60258D01*
X420500Y60000D01*
X420497Y59742D01*
X420487Y59485D01*
X420472Y59228D01*
X420449Y58971D01*
X420421Y58715D01*
X420386Y58459D01*
X420345Y58205D01*
X420298Y57952D01*
X420245Y57699D01*
X420185Y57449D01*
X420120Y57200D01*
X420048Y56952D01*
X419970Y56706D01*
X419886Y56463D01*
X419796Y56221D01*
X419701Y55982D01*
X419599Y55745D01*
X419492Y55511D01*
X419379Y55279D01*
X419260Y55050D01*
X419136Y54825D01*
X419006Y54602D01*
X418871Y54383D01*
X418730Y54167D01*
X418585Y53954D01*
X418434Y53745D01*
X418278Y53540D01*
X418117Y53339D01*
X417951Y53142D01*
X417780Y52949D01*
X417605Y52760D01*
X417425Y52575D01*
X417240Y52395D01*
X417051Y52220D01*
X416858Y52049D01*
X416661Y51883D01*
X416460Y51722D01*
X416255Y51566D01*
X416046Y51415D01*
X415833Y51270D01*
X415617Y51129D01*
X415398Y50994D01*
X415175Y50864D01*
X414950Y50740D01*
X414721Y50621D01*
X414489Y50508D01*
X414255Y50401D01*
X414018Y50299D01*
X413779Y50204D01*
X413537Y50114D01*
X413294Y50030D01*
X413048Y49952D01*
X412800Y49880D01*
X412551Y49815D01*
X412301Y49755D01*
X412048Y49702D01*
X411795Y49655D01*
X411541Y49614D01*
X411285Y49579D01*
X411029Y49551D01*
X410772Y49528D01*
X410515Y49513D01*
X410258Y49503D01*
X410000Y49500D01*
X409742Y49503D01*
X409485Y49513D01*
X409228Y49528D01*
X408971Y49551D01*
X408715Y49579D01*
X408459Y49614D01*
X408205Y49655D01*
X407952Y49702D01*
X407699Y49755D01*
X407449Y49815D01*
X407200Y49880D01*
X406952Y49952D01*
X406706Y50030D01*
X406463Y50114D01*
X406221Y50204D01*
X405982Y50299D01*
X405745Y50401D01*
X405511Y50508D01*
X405279Y50621D01*
X405050Y50740D01*
X404825Y50864D01*
X404602Y50994D01*
X404383Y51129D01*
X404167Y51270D01*
X403954Y51415D01*
X403745Y51566D01*
X403540Y51722D01*
X403339Y51883D01*
X403142Y52049D01*
X402949Y52220D01*
X402760Y52395D01*
X402575Y52575D01*
X402395Y52760D01*
X402220Y52949D01*
X402049Y53142D01*
X401883Y53339D01*
X401722Y53540D01*
X401566Y53745D01*
X401415Y53954D01*
X401270Y54167D01*
X401129Y54383D01*
X400994Y54602D01*
X400864Y54825D01*
X400740Y55050D01*
X400621Y55279D01*
X400508Y55511D01*
X400401Y55745D01*
X400299Y55982D01*
X400204Y56221D01*
X400114Y56463D01*
X400030Y56706D01*
X399952Y56952D01*
X399880Y57200D01*
X399815Y57449D01*
X399755Y57699D01*
X399702Y57952D01*
X399655Y58205D01*
X399614Y58459D01*
X399579Y58715D01*
X399551Y58971D01*
X399528Y59228D01*
X399513Y59485D01*
X399503Y59742D01*
X399500Y60000D01*
X24500Y480000D02*
X24503Y480258D01*
X24513Y480515D01*
X24528Y480772D01*
X24551Y481029D01*
X24579Y481285D01*
X24614Y481541D01*
X24655Y481795D01*
X24702Y482048D01*
X24755Y482301D01*
X24815Y482551D01*
X24880Y482800D01*
X24952Y483048D01*
X25030Y483294D01*
X25114Y483537D01*
X25204Y483779D01*
X25299Y484018D01*
X25401Y484255D01*
X25508Y484489D01*
X25621Y484721D01*
X25740Y484950D01*
X25864Y485175D01*
X25994Y485398D01*
X26129Y485617D01*
X26270Y485833D01*
X26415Y486046D01*
X26566Y486255D01*
X26722Y486460D01*
X26883Y486661D01*
X27049Y486858D01*
X27220Y487051D01*
X27395Y487240D01*
X27575Y487425D01*
X27760Y487605D01*
X27949Y487780D01*
X28142Y487951D01*
X28339Y488117D01*
X28540Y488278D01*
X28745Y488434D01*
X28954Y488585D01*
X29167Y488730D01*
X29383Y488871D01*
X29602Y489006D01*
X29825Y489136D01*
X30050Y489260D01*
X30279Y489379D01*
X30511Y489492D01*
X30745Y489599D01*
X30982Y489701D01*
X31221Y489796D01*
X31463Y489886D01*
X31706Y489970D01*
X31952Y490048D01*
X32200Y490120D01*
X32449Y490185D01*
X32699Y490245D01*
X32952Y490298D01*
X33205Y490345D01*
X33459Y490386D01*
X33715Y490421D01*
X33971Y490449D01*
X34228Y490472D01*
X34485Y490487D01*
X34742Y490497D01*
X35000Y490500D01*
X35258Y490497D01*
X35515Y490487D01*
X35772Y490472D01*
X36029Y490449D01*
X36285Y490421D01*
X36541Y490386D01*
X36795Y490345D01*
X37048Y490298D01*
X37301Y490245D01*
X37551Y490185D01*
X37800Y490120D01*
X38048Y490048D01*
X38294Y489970D01*
X38537Y489886D01*
X38779Y489796D01*
X39018Y489701D01*
X39255Y489599D01*
X39489Y489492D01*
X39721Y489379D01*
X39950Y489260D01*
X40175Y489136D01*
X40398Y489006D01*
X40617Y488871D01*
X40833Y488730D01*
X41046Y488585D01*
X41255Y488434D01*
X41460Y488278D01*
X41661Y488117D01*
X41858Y487951D01*
X42051Y487780D01*
X42240Y487605D01*
X42425Y487425D01*
X42605Y487240D01*
X42780Y487051D01*
X42951Y486858D01*
X43117Y486661D01*
X43278Y486460D01*
X43434Y486255D01*
X43585Y486046D01*
X43730Y485833D01*
X43871Y485617D01*
X44006Y485398D01*
X44136Y485175D01*
X44260Y484950D01*
X44379Y484721D01*
X44492Y484489D01*
X44599Y484255D01*
X44701Y484018D01*
X44796Y483779D01*
X44886Y483537D01*
X44970Y483294D01*
X45048Y483048D01*
X45120Y482800D01*
X45185Y482551D01*
X45245Y482301D01*
X45298Y482048D01*
X45345Y481795D01*
X45386Y481541D01*
X45421Y481285D01*
X45449Y481029D01*
X45472Y480772D01*
X45487Y480515D01*
X45497Y480258D01*
X45500Y480000D01*
X45497Y479742D01*
X45487Y479485D01*
X45472Y479228D01*
X45449Y478971D01*
X45421Y478715D01*
X45386Y478459D01*
X45345Y478205D01*
X45298Y477952D01*
X45245Y477699D01*
X45185Y477449D01*
X45120Y477200D01*
X45048Y476952D01*
X44970Y476706D01*
X44886Y476463D01*
X44796Y476221D01*
X44701Y475982D01*
X44599Y475745D01*
X44492Y475511D01*
X44379Y475279D01*
X44260Y475050D01*
X44136Y474825D01*
X44006Y474602D01*
X43871Y474383D01*
X43730Y474167D01*
X43585Y473954D01*
X43434Y473745D01*
X43278Y473540D01*
X43117Y473339D01*
X42951Y473142D01*
X42780Y472949D01*
X42605Y472760D01*
X42425Y472575D01*
X42240Y472395D01*
X42051Y472220D01*
X41858Y472049D01*
X41661Y471883D01*
X41460Y471722D01*
X41255Y471566D01*
X41046Y471415D01*
X40833Y471270D01*
X40617Y471129D01*
X40398Y470994D01*
X40175Y470864D01*
X39950Y470740D01*
X39721Y470621D01*
X39489Y470508D01*
X39255Y470401D01*
X39018Y470299D01*
X38779Y470204D01*
X38537Y470114D01*
X38294Y470030D01*
X38048Y469952D01*
X37800Y469880D01*
X37551Y469815D01*
X37301Y469755D01*
X37048Y469702D01*
X36795Y469655D01*
X36541Y469614D01*
X36285Y469579D01*
X36029Y469551D01*
X35772Y469528D01*
X35515Y469513D01*
X35258Y469503D01*
X35000Y469500D01*
X34742Y469503D01*
X34485Y469513D01*
X34228Y469528D01*
X33971Y469551D01*
X33715Y469579D01*
X33459Y469614D01*
X33205Y469655D01*
X32952Y469702D01*
X32699Y469755D01*
X32449Y469815D01*
X32200Y469880D01*
X31952Y469952D01*
X31706Y470030D01*
X31463Y470114D01*
X31221Y470204D01*
X30982Y470299D01*
X30745Y470401D01*
X30511Y470508D01*
X30279Y470621D01*
X30050Y470740D01*
X29825Y470864D01*
X29602Y470994D01*
X29383Y471129D01*
X29167Y471270D01*
X28954Y471415D01*
X28745Y471566D01*
X28540Y471722D01*
X28339Y471883D01*
X28142Y472049D01*
X27949Y472220D01*
X27760Y472395D01*
X27575Y472575D01*
X27395Y472760D01*
X27220Y472949D01*
X27049Y473142D01*
X26883Y473339D01*
X26722Y473540D01*
X26566Y473745D01*
X26415Y473954D01*
X26270Y474167D01*
X26129Y474383D01*
X25994Y474602D01*
X25864Y474825D01*
X25740Y475050D01*
X25621Y475279D01*
X25508Y475511D01*
X25401Y475745D01*
X25299Y475982D01*
X25204Y476221D01*
X25114Y476463D01*
X25030Y476706D01*
X24952Y476952D01*
X24880Y477200D01*
X24815Y477449D01*
X24755Y477699D01*
X24702Y477952D01*
X24655Y478205D01*
X24614Y478459D01*
X24579Y478715D01*
X24551Y478971D01*
X24528Y479228D01*
X24513Y479485D01*
X24503Y479742D01*
X24500Y480000D01*
X399500Y295000D02*
X399503Y295258D01*
X399513Y295515D01*
X399528Y295772D01*
X399551Y296029D01*
X399579Y296285D01*
X399614Y296541D01*
X399655Y296795D01*
X399702Y297048D01*
X399755Y297301D01*
X399815Y297551D01*
X399880Y297800D01*
X399952Y298048D01*
X400030Y298294D01*
X400114Y298537D01*
X400204Y298779D01*
X400299Y299018D01*
X400401Y299255D01*
X400508Y299489D01*
X400621Y299721D01*
X400740Y299950D01*
X400864Y300175D01*
X400994Y300398D01*
X401129Y300617D01*
X401270Y300833D01*
X401415Y301046D01*
X401566Y301255D01*
X401722Y301460D01*
X401883Y301661D01*
X402049Y301858D01*
X402220Y302051D01*
X402395Y302240D01*
X402575Y302425D01*
X402760Y302605D01*
X402949Y302780D01*
X403142Y302951D01*
X403339Y303117D01*
X403540Y303278D01*
X403745Y303434D01*
X403954Y303585D01*
X404167Y303730D01*
X404383Y303871D01*
X404602Y304006D01*
X404825Y304136D01*
X405050Y304260D01*
X405279Y304379D01*
X405511Y304492D01*
X405745Y304599D01*
X405982Y304701D01*
X406221Y304796D01*
X406463Y304886D01*
X406706Y304970D01*
X406952Y305048D01*
X407200Y305120D01*
X407449Y305185D01*
X407699Y305245D01*
X407952Y305298D01*
X408205Y305345D01*
X408459Y305386D01*
X408715Y305421D01*
X408971Y305449D01*
X409228Y305472D01*
X409485Y305487D01*
X409742Y305497D01*
X410000Y305500D01*
X410258Y305497D01*
X410515Y305487D01*
X410772Y305472D01*
X411029Y305449D01*
X411285Y305421D01*
X411541Y305386D01*
X411795Y305345D01*
X412048Y305298D01*
X412301Y305245D01*
X412551Y305185D01*
X412800Y305120D01*
X413048Y305048D01*
X413294Y304970D01*
X413537Y304886D01*
X413779Y304796D01*
X414018Y304701D01*
X414255Y304599D01*
X414489Y304492D01*
X414721Y304379D01*
X414950Y304260D01*
X415175Y304136D01*
X415398Y304006D01*
X415617Y303871D01*
X415833Y303730D01*
X416046Y303585D01*
X416255Y303434D01*
X416460Y303278D01*
X416661Y303117D01*
X416858Y302951D01*
X417051Y302780D01*
X417240Y302605D01*
X417425Y302425D01*
X417605Y302240D01*
X417780Y302051D01*
X417951Y301858D01*
X418117Y301661D01*
X418278Y301460D01*
X418434Y301255D01*
X418585Y301046D01*
X418730Y300833D01*
X418871Y300617D01*
X419006Y300398D01*
X419136Y300175D01*
X419260Y299950D01*
X419379Y299721D01*
X419492Y299489D01*
X419599Y299255D01*
X419701Y299018D01*
X419796Y298779D01*
X419886Y298537D01*
X419970Y298294D01*
X420048Y298048D01*
X420120Y297800D01*
X420185Y297551D01*
X420245Y297301D01*
X420298Y297048D01*
X420345Y296795D01*
X420386Y296541D01*
X420421Y296285D01*
X420449Y296029D01*
X420472Y295772D01*
X420487Y295515D01*
X420497Y295258D01*
X420500Y295000D01*
X420497Y294742D01*
X420487Y294485D01*
X420472Y294228D01*
X420449Y293971D01*
X420421Y293715D01*
X420386Y293459D01*
X420345Y293205D01*
X420298Y292952D01*
X420245Y292699D01*
X420185Y292449D01*
X420120Y292200D01*
X420048Y291952D01*
X419970Y291706D01*
X419886Y291463D01*
X419796Y291221D01*
X419701Y290982D01*
X419599Y290745D01*
X419492Y290511D01*
X419379Y290279D01*
X419260Y290050D01*
X419136Y289825D01*
X419006Y289602D01*
X418871Y289383D01*
X418730Y289167D01*
X418585Y288954D01*
X418434Y288745D01*
X418278Y288540D01*
X418117Y288339D01*
X417951Y288142D01*
X417780Y287949D01*
X417605Y287760D01*
X417425Y287575D01*
X417240Y287395D01*
X417051Y287220D01*
X416858Y287049D01*
X416661Y286883D01*
X416460Y286722D01*
X416255Y286566D01*
X416046Y286415D01*
X415833Y286270D01*
X415617Y286129D01*
X415398Y285994D01*
X415175Y285864D01*
X414950Y285740D01*
X414721Y285621D01*
X414489Y285508D01*
X414255Y285401D01*
X414018Y285299D01*
X413779Y285204D01*
X413537Y285114D01*
X413294Y285030D01*
X413048Y284952D01*
X412800Y284880D01*
X412551Y284815D01*
X412301Y284755D01*
X412048Y284702D01*
X411795Y284655D01*
X411541Y284614D01*
X411285Y284579D01*
X411029Y284551D01*
X410772Y284528D01*
X410515Y284513D01*
X410258Y284503D01*
X410000Y284500D01*
X409742Y284503D01*
X409485Y284513D01*
X409228Y284528D01*
X408971Y284551D01*
X408715Y284579D01*
X408459Y284614D01*
X408205Y284655D01*
X407952Y284702D01*
X407699Y284755D01*
X407449Y284815D01*
X407200Y284880D01*
X406952Y284952D01*
X406706Y285030D01*
X406463Y285114D01*
X406221Y285204D01*
X405982Y285299D01*
X405745Y285401D01*
X405511Y285508D01*
X405279Y285621D01*
X405050Y285740D01*
X404825Y285864D01*
X404602Y285994D01*
X404383Y286129D01*
X404167Y286270D01*
X403954Y286415D01*
X403745Y286566D01*
X403540Y286722D01*
X403339Y286883D01*
X403142Y287049D01*
X402949Y287220D01*
X402760Y287395D01*
X402575Y287575D01*
X402395Y287760D01*
X402220Y287949D01*
X402049Y288142D01*
X401883Y288339D01*
X401722Y288540D01*
X401566Y288745D01*
X401415Y288954D01*
X401270Y289167D01*
X401129Y289383D01*
X400994Y289602D01*
X400864Y289825D01*
X400740Y290050D01*
X400621Y290279D01*
X400508Y290511D01*
X400401Y290745D01*
X400299Y290982D01*
X400204Y291221D01*
X400114Y291463D01*
X400030Y291706D01*
X399952Y291952D01*
X399880Y292200D01*
X399815Y292449D01*
X399755Y292699D01*
X399702Y292952D01*
X399655Y293205D01*
X399614Y293459D01*
X399579Y293715D01*
X399551Y293971D01*
X399528Y294228D01*
X399513Y294485D01*
X399503Y294742D01*
X399500Y295000D01*
D11*
X0Y0D02*
X440000Y0D01*
X440000Y550000D01*
X0Y550000D01*
X0Y0D01*
X214000Y484700D02*
X235000Y484700D01*
X235000Y492700D01*
X214000Y492700D01*
X214000Y484700D01*
X267000Y436700D02*
X277000Y436700D01*
X277000Y456700D01*
X267000Y456700D01*
X267000Y436700D01*
X267000Y483700D02*
X277000Y483700D01*
X277000Y503700D01*
X267000Y503700D01*
X267000Y483700D01*
X172000Y436700D02*
X182000Y436700D01*
X182000Y456700D01*
X172000Y456700D01*
X172000Y436700D01*
X172000Y483700D02*
X182000Y483700D01*
X182000Y503700D01*
X172000Y503700D01*
X172000Y483700D01*
X109529Y505600D02*
X108789Y505665D01*
X108059Y505794D01*
X107342Y505986D01*
X106644Y506240D01*
X105971Y506553D01*
X105329Y506924D01*
X104721Y507350D01*
X104152Y507827D01*
X103627Y508352D01*
X103150Y508921D01*
X102724Y509529D01*
X102353Y510171D01*
X102040Y510844D01*
X101786Y511542D01*
X101594Y512259D01*
X101465Y512989D01*
X101400Y513729D01*
X101400Y514471D01*
X101465Y515211D01*
X101594Y515942D01*
X101786Y516658D01*
X102040Y517356D01*
X102353Y518029D01*
X102724Y518671D01*
X103150Y519279D01*
X103627Y519848D01*
X104152Y520373D01*
X104721Y520850D01*
X105329Y521276D01*
X105971Y521647D01*
X106644Y521960D01*
X107342Y522214D01*
X108059Y522406D01*
X108789Y522535D01*
X109529Y522600D01*
X110271Y522600D01*
X111011Y522535D01*
X111742Y522406D01*
X112458Y522214D01*
X113156Y521960D01*
X113829Y521647D01*
X114471Y521276D01*
X115079Y520850D01*
X115648Y520373D01*
X116173Y519848D01*
X116650Y519279D01*
X117076Y518671D01*
X117447Y518029D01*
X117760Y517356D01*
X118014Y516658D01*
X118206Y515942D01*
X118335Y515211D01*
X118400Y514471D01*
X118400Y513729D01*
X118335Y512989D01*
X118206Y512259D01*
X118014Y511542D01*
X117760Y510844D01*
X117447Y510171D01*
X117076Y509529D01*
X116650Y508921D01*
X116173Y508352D01*
X115648Y507827D01*
X115079Y507350D01*
X114471Y506924D01*
X113829Y506553D01*
X113156Y506240D01*
X112458Y505986D01*
X111742Y505794D01*
X111011Y505665D01*
X110271Y505600D01*
X109529Y505600D01*
X109529Y435600D02*
X108789Y435665D01*
X108059Y435794D01*
X107342Y435986D01*
X106644Y436240D01*
X105971Y436553D01*
X105329Y436924D01*
X104721Y437350D01*
X104152Y437827D01*
X103627Y438352D01*
X103150Y438921D01*
X102724Y439529D01*
X102353Y440171D01*
X102040Y440844D01*
X101786Y441542D01*
X101594Y442259D01*
X101465Y442989D01*
X101400Y443729D01*
X101400Y444471D01*
X101465Y445211D01*
X101594Y445942D01*
X101786Y446658D01*
X102040Y447356D01*
X102353Y448029D01*
X102724Y448671D01*
X103150Y449279D01*
X103627Y449848D01*
X104152Y450373D01*
X104721Y450850D01*
X105329Y451276D01*
X105971Y451647D01*
X106644Y451960D01*
X107342Y452214D01*
X108059Y452406D01*
X108789Y452535D01*
X109529Y452600D01*
X110271Y452600D01*
X111011Y452535D01*
X111742Y452406D01*
X112458Y452214D01*
X113156Y451960D01*
X113829Y451647D01*
X114471Y451276D01*
X115079Y450850D01*
X115648Y450373D01*
X116173Y449848D01*
X116650Y449279D01*
X117076Y448671D01*
X117447Y448029D01*
X117760Y447356D01*
X118014Y446658D01*
X118206Y445942D01*
X118335Y445211D01*
X118400Y444471D01*
X118400Y443729D01*
X118335Y442989D01*
X118206Y442259D01*
X118014Y441542D01*
X117760Y440844D01*
X117447Y440171D01*
X117076Y439529D01*
X116650Y438921D01*
X116173Y438352D01*
X115648Y437827D01*
X115079Y437350D01*
X114471Y436924D01*
X113829Y436553D01*
X113156Y436240D01*
X112458Y435986D01*
X111742Y435794D01*
X111011Y435665D01*
X110271Y435600D01*
X109529Y435600D01*
X45500Y34587D02*
X45435Y33765D01*
X45306Y32950D01*
X45114Y32148D01*
X44859Y31363D01*
X44543Y30601D01*
X44168Y29866D01*
X43737Y29162D01*
X43252Y28495D01*
X42716Y27867D01*
X42133Y27284D01*
X41506Y26748D01*
X40838Y26263D01*
X40134Y25832D01*
X39399Y25457D01*
X38637Y25141D01*
X37852Y24886D01*
X37050Y24694D01*
X36235Y24565D01*
X35413Y24500D01*
X34587Y24500D01*
X33765Y24565D01*
X32950Y24694D01*
X32148Y24886D01*
X31363Y25141D01*
X30601Y25457D01*
X29866Y25832D01*
X29162Y26263D01*
X28495Y26748D01*
X27867Y27284D01*
X27284Y27867D01*
X26748Y28495D01*
X26263Y29162D01*
X25832Y29866D01*
X25457Y30601D01*
X25141Y31363D01*
X24886Y32148D01*
X24694Y32950D01*
X24565Y33765D01*
X24500Y34587D01*
X24500Y35413D01*
X24565Y36235D01*
X24694Y37050D01*
X24886Y37852D01*
X25141Y38637D01*
X25457Y39399D01*
X25832Y40134D01*
X26263Y40838D01*
X26748Y41506D01*
X27284Y42133D01*
X27867Y42716D01*
X28495Y43252D01*
X29162Y43737D01*
X29866Y44168D01*
X30601Y44543D01*
X31363Y44859D01*
X32148Y45114D01*
X32950Y45306D01*
X33765Y45435D01*
X34587Y45500D01*
X35413Y45500D01*
X36235Y45435D01*
X37050Y45306D01*
X37852Y45114D01*
X38637Y44859D01*
X39399Y44543D01*
X40134Y44168D01*
X40838Y43737D01*
X41506Y43252D01*
X42133Y42716D01*
X42716Y42133D01*
X43252Y41506D01*
X43737Y40838D01*
X44168Y40134D01*
X44543Y39399D01*
X44859Y38637D01*
X45114Y37852D01*
X45306Y37050D01*
X45435Y36235D01*
X45500Y35413D01*
X45500Y34587D01*
X420500Y59587D02*
X420435Y58765D01*
X420306Y57950D01*
X420114Y57148D01*
X419859Y56363D01*
X419543Y55601D01*
X419168Y54866D01*
X418737Y54162D01*
X418252Y53495D01*
X417716Y52867D01*
X417133Y52284D01*
X416506Y51748D01*
X415838Y51263D01*
X415134Y50832D01*
X414399Y50457D01*
X413637Y50141D01*
X412852Y49886D01*
X412050Y49694D01*
X411235Y49565D01*
X410413Y49500D01*
X409587Y49500D01*
X408765Y49565D01*
X407950Y49694D01*
X407148Y49886D01*
X406363Y50141D01*
X405601Y50457D01*
X404866Y50832D01*
X404162Y51263D01*
X403495Y51748D01*
X402867Y52284D01*
X402284Y52867D01*
X401748Y53495D01*
X401263Y54162D01*
X400832Y54866D01*
X400457Y55601D01*
X400141Y56363D01*
X399886Y57148D01*
X399694Y57950D01*
X399565Y58765D01*
X399500Y59587D01*
X399500Y60413D01*
X399565Y61235D01*
X399694Y62050D01*
X399886Y62852D01*
X400141Y63637D01*
X400457Y64399D01*
X400832Y65134D01*
X401263Y65838D01*
X401748Y66506D01*
X402284Y67133D01*
X402867Y67716D01*
X403495Y68252D01*
X404162Y68737D01*
X404866Y69168D01*
X405601Y69543D01*
X406363Y69859D01*
X407148Y70114D01*
X407950Y70306D01*
X408765Y70435D01*
X409587Y70500D01*
X410413Y70500D01*
X411235Y70435D01*
X412050Y70306D01*
X412852Y70114D01*
X413637Y69859D01*
X414399Y69543D01*
X415134Y69168D01*
X415838Y68737D01*
X416506Y68252D01*
X417133Y67716D01*
X417716Y67133D01*
X418252Y66506D01*
X418737Y65838D01*
X419168Y65134D01*
X419543Y64399D01*
X419859Y63637D01*
X420114Y62852D01*
X420306Y62050D01*
X420435Y61235D01*
X420500Y60413D01*
X420500Y59587D01*
X45500Y479587D02*
X45435Y478765D01*
X45306Y477950D01*
X45114Y477148D01*
X44859Y476363D01*
X44543Y475601D01*
X44168Y474866D01*
X43737Y474162D01*
X43252Y473495D01*
X42716Y472867D01*
X42133Y472284D01*
X41506Y471748D01*
X40838Y471263D01*
X40134Y470832D01*
X39399Y470457D01*
X38637Y470141D01*
X37852Y469886D01*
X37050Y469694D01*
X36235Y469565D01*
X35413Y469500D01*
X34587Y469500D01*
X33765Y469565D01*
X32950Y469694D01*
X32148Y469886D01*
X31363Y470141D01*
X30601Y470457D01*
X29866Y470832D01*
X29162Y471263D01*
X28495Y471748D01*
X27867Y472284D01*
X27284Y472867D01*
X26748Y473495D01*
X26263Y474162D01*
X25832Y474866D01*
X25457Y475601D01*
X25141Y476363D01*
X24886Y477148D01*
X24694Y477950D01*
X24565Y478765D01*
X24500Y479587D01*
X24500Y480413D01*
X24565Y481235D01*
X24694Y482050D01*
X24886Y482852D01*
X25141Y483637D01*
X25457Y484399D01*
X25832Y485134D01*
X26263Y485838D01*
X26748Y486506D01*
X27284Y487133D01*
X27867Y487716D01*
X28495Y488252D01*
X29162Y488737D01*
X29866Y489168D01*
X30601Y489543D01*
X31363Y489859D01*
X32148Y490114D01*
X32950Y490306D01*
X33765Y490435D01*
X34587Y490500D01*
X35413Y490500D01*
X36235Y490435D01*
X37050Y490306D01*
X37852Y490114D01*
X38637Y489859D01*
X39399Y489543D01*
X40134Y489168D01*
X40838Y488737D01*
X41506Y488252D01*
X42133Y487716D01*
X42716Y487133D01*
X43252Y486506D01*
X43737Y485838D01*
X44168Y485134D01*
X44543Y484399D01*
X44859Y483637D01*
X45114Y482852D01*
X45306Y482050D01*
X45435Y481235D01*
X45500Y480413D01*
X45500Y479587D01*
X420500Y294587D02*
X420435Y293765D01*
X420306Y292950D01*
X420114Y292148D01*
X419859Y291363D01*
X419543Y290601D01*
X419168Y289866D01*
X418737Y289162D01*
X418252Y288495D01*
X417716Y287867D01*
X417133Y287284D01*
X416506Y286748D01*
X415838Y286263D01*
X415134Y285832D01*
X414399Y285457D01*
X413637Y285141D01*
X412852Y284886D01*
X412050Y284694D01*
X411235Y284565D01*
X410413Y284500D01*
X409587Y284500D01*
X408765Y284565D01*
X407950Y284694D01*
X407148Y284886D01*
X406363Y285141D01*
X405601Y285457D01*
X404866Y285832D01*
X404162Y286263D01*
X403495Y286748D01*
X402867Y287284D01*
X402284Y287867D01*
X401748Y288495D01*
X401263Y289162D01*
X400832Y289866D01*
X400457Y290601D01*
X400141Y291363D01*
X399886Y292148D01*
X399694Y292950D01*
X399565Y293765D01*
X399500Y294587D01*
X399500Y295413D01*
X399565Y296235D01*
X399694Y297050D01*
X399886Y297852D01*
X400141Y298637D01*
X400457Y299399D01*
X400832Y300134D01*
X401263Y300838D01*
X401748Y301506D01*
X402284Y302133D01*
X402867Y302716D01*
X403495Y303252D01*
X404162Y303737D01*
X404866Y304168D01*
X405601Y304543D01*
X406363Y304859D01*
X407148Y305114D01*
X407950Y305306D01*
X408765Y305435D01*
X409587Y305500D01*
X410413Y305500D01*
X411235Y305435D01*
X412050Y305306D01*
X412852Y305114D01*
X413637Y304859D01*
X414399Y304543D01*
X415134Y304168D01*
X415838Y303737D01*
X416506Y303252D01*
X417133Y302716D01*
X417716Y302133D01*
X418252Y301506D01*
X418737Y300838D01*
X419168Y300134D01*
X419543Y299399D01*
X419859Y298637D01*
X420114Y297852D01*
X420306Y297050D01*
X420435Y296235D01*
X420500Y295413D01*
X420500Y294587D01*
M02*
